<svg width="2008" height="1299" xmlns="http://www.w3.org/2000/svg" xmlns:xlink="http://www.w3.org/1999/xlink" version="1.1" baseProfile="full" viewBox="0 0 2008 1299">
<rect width="2008" height="1299" x="0" y="0" fill="#ffffff"></rect>
<path d="M868.5 200L868.5 1059" fill="transparent" stroke="#E5E5E5" stroke-width="0.5" stroke-dasharray="2,1" class="zr0-cls-0"></path>
<path d="M938.5 200L938.5 1059" fill="transparent" stroke="#E5E5E5" stroke-width="0.5" stroke-dasharray="2,1" class="zr0-cls-0"></path>
<path d="M1008.5 200L1008.5 1059" fill="transparent" stroke="#E5E5E5" stroke-width="0.5" stroke-dasharray="2,1" class="zr0-cls-0"></path>
<path d="M1078.5 200L1078.5 1059" fill="transparent" stroke="#E5E5E5" stroke-width="0.5" stroke-dasharray="2,1" class="zr0-cls-0"></path>
<path d="M1148.5 200L1148.5 1059" fill="transparent" stroke="#E5E5E5" stroke-width="0.5" stroke-dasharray="2,1" class="zr0-cls-0"></path>
<path d="M1218.5 200L1218.5 1059" fill="transparent" stroke="#E5E5E5" stroke-width="0.5" stroke-dasharray="2,1" class="zr0-cls-0"></path>
<path d="M1288.5 200L1288.5 1059" fill="transparent" stroke="#E5E5E5" stroke-width="0.5" stroke-dasharray="2,1" class="zr0-cls-0"></path>
<path d="M868.5 1059L868.5 200" fill="transparent" stroke="#000" stroke-linecap="round" class="zr0-cls-0"></path>
<text dominant-baseline="central" text-anchor="end" style="font-size:32px;font-family:Arial, Helvetica, 'Liberation Sans', sans-serif;" xml:space="preserve" transform="translate(859.8594 951.625)" fill="#000">Landolfi 2009, TEED-graded  (Italian AF)</text>
<text dominant-baseline="central" text-anchor="end" style="font-size:32px;font-family:Arial, Helvetica, 'Liberation Sans', sans-serif;" xml:space="preserve" transform="translate(859.8594 736.875)" fill="#000">Morgagni 2012, 25,000 ft  (Italian AF)</text>
<text dominant-baseline="central" text-anchor="end" style="font-size:32px;font-family:Arial, Helvetica, 'Liberation Sans', sans-serif;" xml:space="preserve" transform="translate(859.8594 522.125)" fill="#000">Morgagni 2010  (Italian AF)</text>
<text dominant-baseline="central" text-anchor="end" style="font-size:32px;font-family:Arial, Helvetica, 'Liberation Sans', sans-serif;" xml:space="preserve" transform="translate(859.8594 307.375)" fill="#000">FAC pooled 2010–2026  (anchor)</text>
<text dominant-baseline="central" text-anchor="middle" style="font-size:32px;font-family:Arial, Helvetica, 'Liberation Sans', sans-serif;" y="16" transform="translate(867.8594 1067)" fill="#000">0%</text>
<text dominant-baseline="central" text-anchor="middle" style="font-size:32px;font-family:Arial, Helvetica, 'Liberation Sans', sans-serif;" y="16" transform="translate(937.8828 1067)" fill="#000">1%</text>
<text dominant-baseline="central" text-anchor="middle" style="font-size:32px;font-family:Arial, Helvetica, 'Liberation Sans', sans-serif;" y="16" transform="translate(1007.9063 1067)" fill="#000">2%</text>
<text dominant-baseline="central" text-anchor="middle" style="font-size:32px;font-family:Arial, Helvetica, 'Liberation Sans', sans-serif;" y="16" transform="translate(1077.9297 1067)" fill="#000">3%</text>
<text dominant-baseline="central" text-anchor="middle" style="font-size:32px;font-family:Arial, Helvetica, 'Liberation Sans', sans-serif;" y="16" transform="translate(1147.9531 1067)" fill="#000">4%</text>
<text dominant-baseline="central" text-anchor="middle" style="font-size:32px;font-family:Arial, Helvetica, 'Liberation Sans', sans-serif;" y="16" transform="translate(1217.9766 1067)" fill="#000">5%</text>
<text dominant-baseline="central" text-anchor="middle" style="font-size:32px;font-family:Arial, Helvetica, 'Liberation Sans', sans-serif;" y="16" transform="translate(1288 1067)" fill="#000">6%</text>
<path d="M-5 -5l1059.6 0l0 36l-1059.6 0Z" transform="translate(479.2041 69)" fill="rgb(0,0,0)" fill-opacity="0" stroke="#ccc" stroke-width="0" class="zr0-cls-0"></path>
<path d="M12 5A5 5 0 1 1 12 4.5A5 5 0 0 1 12 5" transform="translate(478.2041 77)" fill="#D55E00" fill-opacity="0.8" stroke="#000" stroke-width="2" stroke-opacity="0.8" stroke-linecap="butt" stroke-miterlimit="10" class="zr0-cls-0"></path>
<text dominant-baseline="central" text-anchor="start" style="font-size:26px;font-family:Arial, Helvetica, 'Liberation Sans', sans-serif;" xml:space="preserve" x="19" y="5" transform="translate(478.2041 77)" fill="#000">Observed (anchor)</text>
<path d="M1 -8l234.8 0l0 26l-234.8 0Z" transform="translate(478.2041 77)" fill="transparent" class="zr0-cls-0"></path>
<path d="M12 5A5 5 0 1 1 12 4.5A5 5 0 0 1 12 5" transform="translate(722.9639 77)" fill="#0072B2" fill-opacity="0.8" stroke="#000" stroke-width="2" stroke-opacity="0.8" stroke-linecap="butt" stroke-miterlimit="10" class="zr0-cls-0"></path>
<text dominant-baseline="central" text-anchor="start" style="font-size:26px;font-family:Arial, Helvetica, 'Liberation Sans', sans-serif;" xml:space="preserve" x="19" y="5" transform="translate(722.9639 77)" fill="#000">Observed (external)</text>
<path d="M1 -8l247.8 0l0 26l-247.8 0Z" transform="translate(722.9639 77)" fill="transparent" class="zr0-cls-0"></path>
<path d="M7 0L14 5L7 10L0 5Z" transform="translate(982.7236 77)" fill="#009E73" fill-opacity="0.8" stroke="#000" stroke-width="2" stroke-opacity="0.8" stroke-linecap="butt" stroke-miterlimit="10" class="zr0-cls-0"></path>
<text dominant-baseline="central" text-anchor="start" style="font-size:26px;font-family:Arial, Helvetica, 'Liberation Sans', sans-serif;" xml:space="preserve" x="19" y="5" transform="translate(982.7236 77)" fill="#000">Simulated (within CI)</text>
<path d="M-1 -8l259.9 0l0 26l-259.9 0Z" transform="translate(982.7236 77)" fill="transparent" class="zr0-cls-0"></path>
<path d="M7 0L14 5L7 10L0 5Z" transform="translate(1252.5762 77)" fill="#E69F00" fill-opacity="0.8" stroke="#000" stroke-width="2" stroke-opacity="0.8" stroke-linecap="butt" stroke-miterlimit="10" class="zr0-cls-0"></path>
<text dominant-baseline="central" text-anchor="start" style="font-size:26px;font-family:Arial, Helvetica, 'Liberation Sans', sans-serif;" xml:space="preserve" x="19" y="5" transform="translate(1252.5762 77)" fill="#000">Simulated (outside CI)</text>
<path d="M-1 -8l277.2 0l0 26l-277.2 0Z" transform="translate(1252.5762 77)" fill="transparent" class="zr0-cls-0"></path>
<path d="M-614.2 -5l1228.3 0l0 50l-1228.3 0Z" transform="translate(1004 21)" fill="rgb(0,0,0)" fill-opacity="0" stroke="#ccc" stroke-width="0" class="zr0-cls-0"></path>
<path d="M953.3 951.6L1191.4 951.6" fill="#000" stroke="#000" class="zr0-cls-0"></path>
<path d="M953.3 945.6L953.3 957.6" fill="#000" stroke="#000" class="zr0-cls-0"></path>
<path d="M1191.4 945.6L1191.4 957.6" fill="#000" stroke="#000" class="zr0-cls-0"></path>
<path d="M944.2 736.9L1183.7 736.9" fill="#000" stroke="#000" class="zr0-cls-0"></path>
<path d="M944.2 730.9L944.2 742.9" fill="#000" stroke="#000" class="zr0-cls-0"></path>
<path d="M1183.7 730.9L1183.7 742.9" fill="#000" stroke="#000" class="zr0-cls-0"></path>
<path d="M935.8 522.1L1033.1 522.1" fill="#000" stroke="#000" class="zr0-cls-0"></path>
<path d="M935.8 516.1L935.8 528.1" fill="#000" stroke="#000" class="zr0-cls-0"></path>
<path d="M1033.1 516.1L1033.1 528.1" fill="#000" stroke="#000" class="zr0-cls-0"></path>
<path d="M1012.1 307.4L1060.4 307.4" fill="#000" stroke="#000" class="zr0-cls-0"></path>
<path d="M1012.1 301.4L1012.1 313.4" fill="#000" stroke="#000" class="zr0-cls-0"></path>
<path d="M1060.4 301.4L1060.4 313.4" fill="#000" stroke="#000" class="zr0-cls-0"></path>
<text dominant-baseline="central" text-anchor="middle" style="font-size:40px;font-family:Arial, Helvetica, 'Liberation Sans', sans-serif;" xml:space="preserve" y="20" transform="translate(1004 21)" fill="#464646">External validation: observed vs simulated per-exposure barotitis (%)</text>
<path d="M1 0A1 1 0 1 1 1 -0.1A1 1 0 0 1 1 0" transform="matrix(7,0,0,7,1034.5152,307.375)" fill="#D55E00" fill-opacity="0.8" stroke="#000" stroke-width="0.09999999999999999" stroke-opacity="0.8" class="zr0-cls-1"></path>
<path d="M1 0A1 1 0 1 1 1 -0.1A1 1 0 0 1 1 0" transform="matrix(6,0,0,6,1035.2154,951.625)" fill="#0072B2" fill-opacity="0.8" stroke="#000" stroke-width="0.11666666666666665" stroke-opacity="0.8" class="zr0-cls-2"></path>
<path d="M1 0A1 1 0 1 1 1 -0.1A1 1 0 0 1 1 0" transform="matrix(6,0,0,6,1024.0116,736.875)" fill="#0072B2" fill-opacity="0.8" stroke="#000" stroke-width="0.11666666666666665" stroke-opacity="0.8" class="zr0-cls-2"></path>
<path d="M1 0A1 1 0 1 1 1 -0.1A1 1 0 0 1 1 0" transform="matrix(6,0,0,6,973.5948,522.125)" fill="#0072B2" fill-opacity="0.8" stroke="#000" stroke-width="0.11666666666666665" stroke-opacity="0.8" class="zr0-cls-2"></path>
<path d="M0 -1L1 0L0 1L-1 0Z" transform="matrix(6.5,0,0,6.5,1103.8384,951.625)" fill="#009E73" fill-opacity="0.8" stroke="#000" stroke-width="0.10769230769230768" stroke-opacity="0.8" class="zr0-cls-3"></path>
<path d="M0 -1L1 0L0 1L-1 0Z" transform="matrix(6.5,0,0,6.5,1099.637,736.875)" fill="#009E73" fill-opacity="0.8" stroke="#000" stroke-width="0.10769230769230768" stroke-opacity="0.8" class="zr0-cls-3"></path>
<path d="M0 -1L1 0L0 1L-1 0Z" transform="matrix(6.5,0,0,6.5,1040.8173,307.375)" fill="#009E73" fill-opacity="0.8" stroke="#000" stroke-width="0.10769230769230768" stroke-opacity="0.8" class="zr0-cls-3"></path>
<path d="M0 -1L1 0L0 1L-1 0Z" transform="matrix(6.5,0,0,6.5,1096.836,522.125)" fill="#E69F00" fill-opacity="0.8" stroke="#000" stroke-width="0.10769230769230768" stroke-opacity="0.8" class="zr0-cls-4"></path>
<text dominant-baseline="central" text-anchor="start" style="font-size:26px;font-family:Arial,sans-serif;" xml:space="preserve" x="1298" y="951.625" fill="#000">k=8/335 · sim 3.37% · within CI</text>
<text dominant-baseline="central" text-anchor="start" style="font-size:26px;font-family:Arial,sans-serif;" xml:space="preserve" x="1298" y="736.875" fill="#000">k=7/314 · sim 3.31% · within CI</text>
<text dominant-baseline="central" text-anchor="start" style="font-size:26px;font-family:Arial,sans-serif;" xml:space="preserve" x="1298" y="522.125" fill="#000">k=19/1,254 · sim 3.27% · +0.91 pp</text>
<text dominant-baseline="central" text-anchor="start" style="font-size:26px;font-family:Arial,sans-serif;" xml:space="preserve" x="1298" y="307.375" fill="#000">k=173/7,271 · sim 2.47% · within CI</text>
<text dominant-baseline="central" text-anchor="middle" style="font: 22px Arial,sans-serif" xml:space="preserve" y="11" transform="translate(1004 1249)" fill="#000">Observed (filled circles) with Wilson 95% CI · simulated point (diamonds: green = within CI, orange = outside)</text>
<style ><![CDATA[
.zr0-cls-0:hover {
pointer-events:none;
}
.zr0-cls-1:hover {
cursor:pointer;
fill:rgba(234,103,0,1);
}
.zr0-cls-2:hover {
cursor:pointer;
fill:rgba(0,125,195,1);
}
.zr0-cls-3:hover {
cursor:pointer;
fill:rgba(0,173,126,1);
}
.zr0-cls-4:hover {
cursor:pointer;
fill:rgba(253,174,0,1);
}

]]>

</style>
</svg>