<svg width="2008" height="886" xmlns="http://www.w3.org/2000/svg" xmlns:xlink="http://www.w3.org/1999/xlink" version="1.1" baseProfile="full" viewBox="0 0 2008 886">
<rect width="2008" height="886" x="0" y="0" fill="#ffffff"></rect>
<path d="M407.5 70L407.5 807" fill="transparent" stroke="#E5E5E5" stroke-width="0.5" stroke-dasharray="2,1" class="zr0-cls-0"></path>
<path d="M627.5 70L627.5 807" fill="transparent" stroke="#E5E5E5" stroke-width="0.5" stroke-dasharray="2,1" class="zr0-cls-0"></path>
<path d="M847.5 70L847.5 807" fill="transparent" stroke="#E5E5E5" stroke-width="0.5" stroke-dasharray="2,1" class="zr0-cls-0"></path>
<path d="M1067.5 70L1067.5 807" fill="transparent" stroke="#E5E5E5" stroke-width="0.5" stroke-dasharray="2,1" class="zr0-cls-0"></path>
<path d="M1288.5 70L1288.5 807" fill="transparent" stroke="#E5E5E5" stroke-width="0.5" stroke-dasharray="2,1" class="zr0-cls-0"></path>
<path d="M1508.5 70L1508.5 807" fill="transparent" stroke="#E5E5E5" stroke-width="0.5" stroke-dasharray="2,1" class="zr0-cls-0"></path>
<path d="M1728.5 70L1728.5 807" fill="transparent" stroke="#E5E5E5" stroke-width="0.5" stroke-dasharray="2,1" class="zr0-cls-0"></path>
<path d="M407.5 807L407.5 70" fill="transparent" stroke="#000" stroke-linecap="round" class="zr0-cls-0"></path>
<text dominant-baseline="central" text-anchor="end" style="font-size:11px;font-family:Arial, Helvetica, 'Liberation Sans', sans-serif;" xml:space="preserve" transform="translate(399.3267 714.875)" fill="#000">Landolfi 2009, TEED-graded  (Italian AF)</text>
<text dominant-baseline="central" text-anchor="end" style="font-size:11px;font-family:Arial, Helvetica, 'Liberation Sans', sans-serif;" xml:space="preserve" transform="translate(399.3267 530.625)" fill="#000">Morgagni 2012, 25,000 ft  (Italian AF)</text>
<text dominant-baseline="central" text-anchor="end" style="font-size:11px;font-family:Arial, Helvetica, 'Liberation Sans', sans-serif;" xml:space="preserve" transform="translate(399.3267 346.375)" fill="#000">Morgagni 2010  (Italian AF)</text>
<text dominant-baseline="central" text-anchor="end" style="font-size:11px;font-family:Arial, Helvetica, 'Liberation Sans', sans-serif;" xml:space="preserve" transform="translate(399.3267 162.125)" fill="#000">FAC pooled 2010–2026  (anchor)</text>
<text dominant-baseline="central" text-anchor="middle" style="font-size:11px;font-family:Arial, Helvetica, 'Liberation Sans', sans-serif;" y="5.5" transform="translate(407.3267 815)" fill="#000">0%</text>
<text dominant-baseline="central" text-anchor="middle" style="font-size:11px;font-family:Arial, Helvetica, 'Liberation Sans', sans-serif;" y="5.5" transform="translate(627.4389 815)" fill="#000">1%</text>
<text dominant-baseline="central" text-anchor="middle" style="font-size:11px;font-family:Arial, Helvetica, 'Liberation Sans', sans-serif;" y="5.5" transform="translate(847.5511 815)" fill="#000">2%</text>
<text dominant-baseline="central" text-anchor="middle" style="font-size:11px;font-family:Arial, Helvetica, 'Liberation Sans', sans-serif;" y="5.5" transform="translate(1067.6633 815)" fill="#000">3%</text>
<text dominant-baseline="central" text-anchor="middle" style="font-size:11px;font-family:Arial, Helvetica, 'Liberation Sans', sans-serif;" y="5.5" transform="translate(1287.7756 815)" fill="#000">4%</text>
<text dominant-baseline="central" text-anchor="middle" style="font-size:11px;font-family:Arial, Helvetica, 'Liberation Sans', sans-serif;" y="5.5" transform="translate(1507.8878 815)" fill="#000">5%</text>
<text dominant-baseline="central" text-anchor="middle" style="font-size:11px;font-family:Arial, Helvetica, 'Liberation Sans', sans-serif;" y="5.5" transform="translate(1728 815)" fill="#000">6%</text>
<path d="M-5 -5l478.9 0l0 22l-478.9 0Z" transform="translate(769.54 37)" fill="rgb(0,0,0)" fill-opacity="0" stroke="#ccc" stroke-width="0" class="zr0-cls-0"></path>
<path d="M12 5A5 5 0 1 1 12 4.5A5 5 0 0 1 12 5" transform="translate(768.54 38)" fill="#D55E00" fill-opacity="0.8" stroke="#000" stroke-width="2" stroke-opacity="0.8" stroke-linecap="butt" stroke-miterlimit="10" class="zr0-cls-0"></path>
<text dominant-baseline="central" text-anchor="start" style="font-size:10px;font-family:Arial, Helvetica, 'Liberation Sans', sans-serif;" xml:space="preserve" x="19" y="5" transform="translate(768.54 38)" fill="#000">Observed (anchor)</text>
<path d="M1 -1l101.4 0l0 12l-101.4 0Z" transform="translate(768.54 38)" fill="transparent" class="zr0-cls-0"></path>
<path d="M12 5A5 5 0 1 1 12 4.5A5 5 0 0 1 12 5" transform="translate(879.9092 38)" fill="#0072B2" fill-opacity="0.8" stroke="#000" stroke-width="2" stroke-opacity="0.8" stroke-linecap="butt" stroke-miterlimit="10" class="zr0-cls-0"></path>
<text dominant-baseline="central" text-anchor="start" style="font-size:10px;font-family:Arial, Helvetica, 'Liberation Sans', sans-serif;" xml:space="preserve" x="19" y="5" transform="translate(879.9092 38)" fill="#000">Observed (external)</text>
<path d="M1 -1l106.4 0l0 12l-106.4 0Z" transform="translate(879.9092 38)" fill="transparent" class="zr0-cls-0"></path>
<path d="M7 0L14 5L7 10L0 5Z" transform="translate(998.2783 38)" fill="#009E73" fill-opacity="0.8" stroke="#000" stroke-width="2" stroke-opacity="0.8" stroke-linecap="butt" stroke-miterlimit="10" class="zr0-cls-0"></path>
<text dominant-baseline="central" text-anchor="start" style="font-size:10px;font-family:Arial, Helvetica, 'Liberation Sans', sans-serif;" xml:space="preserve" x="19" y="5" transform="translate(998.2783 38)" fill="#000">Simulated (within CI)</text>
<path d="M-1 -1l112.3 0l0 12l-112.3 0Z" transform="translate(998.2783 38)" fill="transparent" class="zr0-cls-0"></path>
<path d="M7 0L14 5L7 10L0 5Z" transform="translate(1120.5293 38)" fill="#E69F00" fill-opacity="0.8" stroke="#000" stroke-width="2" stroke-opacity="0.8" stroke-linecap="butt" stroke-miterlimit="10" class="zr0-cls-0"></path>
<text dominant-baseline="central" text-anchor="start" style="font-size:10px;font-family:Arial, Helvetica, 'Liberation Sans', sans-serif;" xml:space="preserve" x="19" y="5" transform="translate(1120.5293 38)" fill="#000">Simulated (outside CI)</text>
<path d="M-1 -1l118.9 0l0 12l-118.9 0Z" transform="translate(1120.5293 38)" fill="transparent" class="zr0-cls-0"></path>
<path d="M-203 -5l406 0l0 23l-406 0Z" transform="translate(1004 13)" fill="rgb(0,0,0)" fill-opacity="0" stroke="#ccc" stroke-width="0" class="zr0-cls-0"></path>
<path d="M675.9 714.9L1424.2 714.9" fill="#000" stroke="#000" class="zr0-cls-0"></path>
<path d="M675.9 708.9L675.9 720.9" fill="#000" stroke="#000" class="zr0-cls-0"></path>
<path d="M1424.2 708.9L1424.2 720.9" fill="#000" stroke="#000" class="zr0-cls-0"></path>
<path d="M647.2 530.6L1400 530.6" fill="#000" stroke="#000" class="zr0-cls-0"></path>
<path d="M647.2 524.6L647.2 536.6" fill="#000" stroke="#000" class="zr0-cls-0"></path>
<path d="M1400 524.6L1400 536.6" fill="#000" stroke="#000" class="zr0-cls-0"></path>
<path d="M620.8 346.4L926.8 346.4" fill="#000" stroke="#000" class="zr0-cls-0"></path>
<path d="M620.8 340.4L620.8 352.4" fill="#000" stroke="#000" class="zr0-cls-0"></path>
<path d="M926.8 340.4L926.8 352.4" fill="#000" stroke="#000" class="zr0-cls-0"></path>
<path d="M860.8 162.1L1012.6 162.1" fill="#000" stroke="#000" class="zr0-cls-0"></path>
<path d="M860.8 156.1L860.8 168.1" fill="#000" stroke="#000" class="zr0-cls-0"></path>
<path d="M1012.6 156.1L1012.6 168.1" fill="#000" stroke="#000" class="zr0-cls-0"></path>
<text dominant-baseline="central" text-anchor="middle" style="font-size:13px;font-family:Arial, Helvetica, 'Liberation Sans', sans-serif;" xml:space="preserve" y="6.5" transform="translate(1004 13)" fill="#464646">External validation: observed vs simulated per-exposure barotitis (%)</text>
<path d="M1 0A1 1 0 1 1 1 -0.1A1 1 0 0 1 1 0" transform="matrix(7,0,0,7,931.1938,162.125)" fill="#D55E00" fill-opacity="0.8" stroke="#000" stroke-width="0.09999999999999999" stroke-opacity="0.8" class="zr0-cls-1"></path>
<path d="M1 0A1 1 0 1 1 1 -0.1A1 1 0 0 1 1 0" transform="matrix(6,0,0,6,933.3949,714.875)" fill="#0072B2" fill-opacity="0.8" stroke="#000" stroke-width="0.11666666666666665" stroke-opacity="0.8" class="zr0-cls-2"></path>
<path d="M1 0A1 1 0 1 1 1 -0.1A1 1 0 0 1 1 0" transform="matrix(6,0,0,6,898.1769,530.625)" fill="#0072B2" fill-opacity="0.8" stroke="#000" stroke-width="0.11666666666666665" stroke-opacity="0.8" class="zr0-cls-2"></path>
<path d="M1 0A1 1 0 1 1 1 -0.1A1 1 0 0 1 1 0" transform="matrix(6,0,0,6,739.6961,346.375)" fill="#0072B2" fill-opacity="0.8" stroke="#000" stroke-width="0.11666666666666665" stroke-opacity="0.8" class="zr0-cls-2"></path>
<path d="M0 -1L1 0L0 1L-1 0Z" transform="matrix(6.5,0,0,6.5,1149.1049,714.875)" fill="#009E73" fill-opacity="0.8" stroke="#000" stroke-width="0.10769230769230768" stroke-opacity="0.8" class="zr0-cls-3"></path>
<path d="M0 -1L1 0L0 1L-1 0Z" transform="matrix(6.5,0,0,6.5,1135.8981,530.625)" fill="#009E73" fill-opacity="0.8" stroke="#000" stroke-width="0.10769230769230768" stroke-opacity="0.8" class="zr0-cls-3"></path>
<path d="M0 -1L1 0L0 1L-1 0Z" transform="matrix(6.5,0,0,6.5,951.0039,162.125)" fill="#009E73" fill-opacity="0.8" stroke="#000" stroke-width="0.10769230769230768" stroke-opacity="0.8" class="zr0-cls-3"></path>
<path d="M0 -1L1 0L0 1L-1 0Z" transform="matrix(6.5,0,0,6.5,1127.0936,346.375)" fill="#E69F00" fill-opacity="0.8" stroke="#000" stroke-width="0.10769230769230768" stroke-opacity="0.8" class="zr0-cls-4"></path>
<text dominant-baseline="central" text-anchor="start" style="font-size:10px;font-family:Arial,sans-serif;" xml:space="preserve" x="1738" y="714.875" fill="#000">k=8/335  ·  sim 3.37%  (within CI)</text>
<text dominant-baseline="central" text-anchor="start" style="font-size:10px;font-family:Arial,sans-serif;" xml:space="preserve" x="1738" y="530.625" fill="#000">k=7/314  ·  sim 3.31%  (within CI)</text>
<text dominant-baseline="central" text-anchor="start" style="font-size:10px;font-family:Arial,sans-serif;" xml:space="preserve" x="1738" y="346.375" fill="#000">k=19/1,254  ·  sim 3.27%  (+0.91 pp outside)</text>
<text dominant-baseline="central" text-anchor="start" style="font-size:10px;font-family:Arial,sans-serif;" xml:space="preserve" x="1738" y="162.125" fill="#000">k=173/7,271  ·  sim 2.47%  (within CI)</text>
<text dominant-baseline="central" text-anchor="middle" style="font: 9px Arial,sans-serif" xml:space="preserve" y="4.5" transform="translate(1004 863)" fill="#000">Observed (filled circles) with Wilson 95% CI · simulated point (diamonds: green = within CI, orange = outside)</text>
<style ><![CDATA[
.zr0-cls-0:hover {
pointer-events:none;
}
.zr0-cls-1:hover {
cursor:pointer;
fill:rgba(234,103,0,1);
}
.zr0-cls-2:hover {
cursor:pointer;
fill:rgba(0,125,195,1);
}
.zr0-cls-3:hover {
cursor:pointer;
fill:rgba(0,173,126,1);
}
.zr0-cls-4:hover {
cursor:pointer;
fill:rgba(253,174,0,1);
}

]]>

</style>
</svg>