<svg width="1417" height="1654" xmlns="http://www.w3.org/2000/svg" xmlns:xlink="http://www.w3.org/1999/xlink" version="1.1" baseProfile="full" viewBox="0 0 1417 1654">
<rect width="1417" height="1654" x="0" y="0" fill="#ffffff"></rect>
<path d="M181.4 736.5L1357 736.5" fill="transparent" stroke="#E5E5E5" stroke-width="0.5" stroke-dasharray="2,1" class="zr0-cls-0"></path>
<path d="M181.4 589.5L1357 589.5" fill="transparent" stroke="#E5E5E5" stroke-width="0.5" stroke-dasharray="2,1" class="zr0-cls-0"></path>
<path d="M181.4 442.5L1357 442.5" fill="transparent" stroke="#E5E5E5" stroke-width="0.5" stroke-dasharray="2,1" class="zr0-cls-0"></path>
<path d="M181.4 296.5L1357 296.5" fill="transparent" stroke="#E5E5E5" stroke-width="0.5" stroke-dasharray="2,1" class="zr0-cls-0"></path>
<path d="M181.4 149.5L1357 149.5" fill="transparent" stroke="#E5E5E5" stroke-width="0.5" stroke-dasharray="2,1" class="zr0-cls-0"></path>
<path d="M181.4 76.5L1357 76.5" fill="transparent" stroke="#E5E5E5" stroke-width="0.5" stroke-dasharray="2,1" class="zr0-cls-0"></path>
<path d="M192 1490.5L1357 1490.5" fill="transparent" stroke="#E5E5E5" stroke-width="0.5" stroke-dasharray="2,1" class="zr0-cls-0"></path>
<path d="M192 1386.5L1357 1386.5" fill="transparent" stroke="#E5E5E5" stroke-width="0.5" stroke-dasharray="2,1" class="zr0-cls-0"></path>
<path d="M192 1283.5L1357 1283.5" fill="transparent" stroke="#E5E5E5" stroke-width="0.5" stroke-dasharray="2,1" class="zr0-cls-0"></path>
<path d="M192 1180.5L1357 1180.5" fill="transparent" stroke="#E5E5E5" stroke-width="0.5" stroke-dasharray="2,1" class="zr0-cls-0"></path>
<path d="M192 1076.5L1357 1076.5" fill="transparent" stroke="#E5E5E5" stroke-width="0.5" stroke-dasharray="2,1" class="zr0-cls-0"></path>
<path d="M192 973.5L1357 973.5" fill="transparent" stroke="#E5E5E5" stroke-width="0.5" stroke-dasharray="2,1" class="zr0-cls-0"></path>
<path d="M192 870.5L1357 870.5" fill="transparent" stroke="#E5E5E5" stroke-width="0.5" stroke-dasharray="2,1" class="zr0-cls-0"></path>
<path d="M181.5 76L181.5 736" fill="transparent" stroke="#E5E5E5" stroke-width="0.5" stroke-dasharray="2,1" class="zr0-cls-0"></path>
<path d="M643.5 76L643.5 736" fill="transparent" stroke="#E5E5E5" stroke-width="0.5" stroke-dasharray="2,1" class="zr0-cls-0"></path>
<path d="M1304.5 76L1304.5 736" fill="transparent" stroke="#E5E5E5" stroke-width="0.5" stroke-dasharray="2,1" class="zr0-cls-0"></path>
<path d="M1357.5 76L1357.5 736" fill="transparent" stroke="#E5E5E5" stroke-width="0.5" stroke-dasharray="2,1" class="zr0-cls-0"></path>
<path d="M192.5 870L192.5 1490" fill="transparent" stroke="#E5E5E5" stroke-width="0.5" stroke-dasharray="2,1" class="zr0-cls-0"></path>
<path d="M650.5 870L650.5 1490" fill="transparent" stroke="#E5E5E5" stroke-width="0.5" stroke-dasharray="2,1" class="zr0-cls-0"></path>
<path d="M1305.5 870L1305.5 1490" fill="transparent" stroke="#E5E5E5" stroke-width="0.5" stroke-dasharray="2,1" class="zr0-cls-0"></path>
<path d="M1357.5 870L1357.5 1490" fill="transparent" stroke="#E5E5E5" stroke-width="0.5" stroke-dasharray="2,1" class="zr0-cls-0"></path>
<path d="M181.5 736L181.5 76" fill="transparent" stroke="#000" stroke-linecap="round" class="zr0-cls-0"></path>
<text dominant-baseline="central" text-anchor="middle" style="font-size:36px;font-family:Arial, Helvetica, 'Liberation Sans', sans-serif;" xml:space="preserve" y="-18" transform="matrix(0,-1,1,0,106.3906,406)" fill="#000">Peak |ΔP| (mmHg)</text>
<path d="M192.5 1490L192.5 870" fill="transparent" stroke="#000" stroke-linecap="round" class="zr0-cls-0"></path>
<text dominant-baseline="central" text-anchor="middle" style="font-size:36px;font-family:Arial, Helvetica, 'Liberation Sans', sans-serif;" xml:space="preserve" y="-18" transform="matrix(0,-1,1,0,124.0469,1180)" fill="#000">Probability (%)</text>
<path d="M181.4 736.5L1357 736.5" fill="transparent" stroke="#000" stroke-linecap="round" class="zr0-cls-0"></path>
<text dominant-baseline="central" text-anchor="middle" style="font-size:36px;font-family:Arial, Helvetica, 'Liberation Sans', sans-serif;" xml:space="preserve" y="18" transform="translate(769.1953 790)" fill="#000">Descent rate (ft/min)</text>
<path d="M192 1490.5L1357 1490.5" fill="transparent" stroke="#000" stroke-linecap="round" class="zr0-cls-0"></path>
<text dominant-baseline="central" text-anchor="middle" style="font-size:36px;font-family:Arial, Helvetica, 'Liberation Sans', sans-serif;" xml:space="preserve" y="18" transform="translate(774.5234 1544)" fill="#000">Descent rate (ft/min)</text>
<path d="M181.4 736.5L176.4 736.5" fill="transparent" stroke="#000" class="zr0-cls-0"></path>
<path d="M181.4 589.5L176.4 589.5" fill="transparent" stroke="#000" class="zr0-cls-0"></path>
<path d="M181.4 442.5L176.4 442.5" fill="transparent" stroke="#000" class="zr0-cls-0"></path>
<path d="M181.4 296.5L176.4 296.5" fill="transparent" stroke="#000" class="zr0-cls-0"></path>
<path d="M181.4 149.5L176.4 149.5" fill="transparent" stroke="#000" class="zr0-cls-0"></path>
<path d="M181.4 76.5L176.4 76.5" fill="transparent" stroke="#000" class="zr0-cls-0"></path>
<path d="M192 1490.5L187 1490.5" fill="transparent" stroke="#000" class="zr0-cls-0"></path>
<path d="M192 1386.5L187 1386.5" fill="transparent" stroke="#000" class="zr0-cls-0"></path>
<path d="M192 1283.5L187 1283.5" fill="transparent" stroke="#000" class="zr0-cls-0"></path>
<path d="M192 1180.5L187 1180.5" fill="transparent" stroke="#000" class="zr0-cls-0"></path>
<path d="M192 1076.5L187 1076.5" fill="transparent" stroke="#000" class="zr0-cls-0"></path>
<path d="M192 973.5L187 973.5" fill="transparent" stroke="#000" class="zr0-cls-0"></path>
<path d="M192 870.5L187 870.5" fill="transparent" stroke="#000" class="zr0-cls-0"></path>
<path d="M181.5 736L181.5 740" fill="transparent" stroke="#000" class="zr0-cls-0"></path>
<path d="M643.5 736L643.5 740" fill="transparent" stroke="#000" class="zr0-cls-0"></path>
<path d="M1304.5 736L1304.5 740" fill="transparent" stroke="#000" class="zr0-cls-0"></path>
<path d="M192.5 1490L192.5 1494" fill="transparent" stroke="#000" class="zr0-cls-0"></path>
<path d="M650.5 1490L650.5 1494" fill="transparent" stroke="#000" class="zr0-cls-0"></path>
<path d="M1305.5 1490L1305.5 1494" fill="transparent" stroke="#000" class="zr0-cls-0"></path>
<text dominant-baseline="central" text-anchor="end" style="font-size:32px;font-family:Arial, Helvetica, 'Liberation Sans', sans-serif;" transform="translate(173.3906 736)" fill="#000">0</text>
<text dominant-baseline="central" text-anchor="end" style="font-size:32px;font-family:Arial, Helvetica, 'Liberation Sans', sans-serif;" transform="translate(173.3906 589.3333)" fill="#000">100</text>
<text dominant-baseline="central" text-anchor="end" style="font-size:32px;font-family:Arial, Helvetica, 'Liberation Sans', sans-serif;" transform="translate(173.3906 442.6667)" fill="#000">200</text>
<text dominant-baseline="central" text-anchor="end" style="font-size:32px;font-family:Arial, Helvetica, 'Liberation Sans', sans-serif;" transform="translate(173.3906 296)" fill="#000">300</text>
<text dominant-baseline="central" text-anchor="end" style="font-size:32px;font-family:Arial, Helvetica, 'Liberation Sans', sans-serif;" transform="translate(173.3906 149.3333)" fill="#000">400</text>
<text dominant-baseline="central" text-anchor="end" style="font-size:32px;font-family:Arial, Helvetica, 'Liberation Sans', sans-serif;" transform="translate(173.3906 76)" fill="#000">450</text>
<text dominant-baseline="central" text-anchor="end" style="font-size:32px;font-family:Arial, Helvetica, 'Liberation Sans', sans-serif;" transform="translate(184.0469 1490)" fill="#000">0%</text>
<text dominant-baseline="central" text-anchor="end" style="font-size:32px;font-family:Arial, Helvetica, 'Liberation Sans', sans-serif;" transform="translate(184.0469 1386.6667)" fill="#000">2%</text>
<text dominant-baseline="central" text-anchor="end" style="font-size:32px;font-family:Arial, Helvetica, 'Liberation Sans', sans-serif;" transform="translate(184.0469 1283.3333)" fill="#000">4%</text>
<text dominant-baseline="central" text-anchor="end" style="font-size:32px;font-family:Arial, Helvetica, 'Liberation Sans', sans-serif;" transform="translate(184.0469 1180)" fill="#000">6%</text>
<text dominant-baseline="central" text-anchor="end" style="font-size:32px;font-family:Arial, Helvetica, 'Liberation Sans', sans-serif;" transform="translate(184.0469 1076.6667)" fill="#000">8%</text>
<text dominant-baseline="central" text-anchor="end" style="font-size:32px;font-family:Arial, Helvetica, 'Liberation Sans', sans-serif;" transform="translate(184.0469 973.3333)" fill="#000">10%</text>
<text dominant-baseline="central" text-anchor="end" style="font-size:32px;font-family:Arial, Helvetica, 'Liberation Sans', sans-serif;" transform="translate(184.0469 870)" fill="#000">12%</text>
<text dominant-baseline="central" text-anchor="middle" style="font-size:32px;font-family:Arial, Helvetica, 'Liberation Sans', sans-serif;" y="16" transform="translate(181.3906 744)" fill="#000">200</text>
<text dominant-baseline="central" text-anchor="middle" style="font-size:32px;font-family:Arial, Helvetica, 'Liberation Sans', sans-serif;" y="16" transform="translate(643.5086 744)" fill="#000">1,000</text>
<text dominant-baseline="central" text-anchor="middle" style="font-size:32px;font-family:Arial, Helvetica, 'Liberation Sans', sans-serif;" y="16" transform="translate(1304.65 744)" fill="#000">10,000</text>
<text dominant-baseline="central" text-anchor="middle" style="font-size:32px;font-family:Arial, Helvetica, 'Liberation Sans', sans-serif;" y="16" transform="translate(192.0469 1498)" fill="#000">200</text>
<text dominant-baseline="central" text-anchor="middle" style="font-size:32px;font-family:Arial, Helvetica, 'Liberation Sans', sans-serif;" y="16" transform="translate(649.976 1498)" fill="#000">1,000</text>
<text dominant-baseline="central" text-anchor="middle" style="font-size:32px;font-family:Arial, Helvetica, 'Liberation Sans', sans-serif;" y="16" transform="translate(1305.1245 1498)" fill="#000">10,000</text>
<g clip-path="url(#zr0-c0)">
<path d="M181.4 709L1357 709" fill="transparent" stroke="#F0E442" stroke-width="1.4" stroke-dasharray="5.6,2.8" stroke-linejoin="bevel" class="zr0-cls-0"></path>
</g>
<g clip-path="url(#zr0-c1)">
<path d="M181.4 595.8L1357 595.8" fill="transparent" stroke="#E69F00" stroke-width="1.4" stroke-dasharray="5.6,2.8" stroke-linejoin="bevel" class="zr0-cls-0"></path>
</g>
<g clip-path="url(#zr0-c2)">
<path d="M181.4 516L1357 516" fill="transparent" stroke="#D55E00" stroke-width="1.4" stroke-dasharray="5.6,2.8" stroke-linejoin="bevel" class="zr0-cls-0"></path>
</g>
<path d="M-8 -4l281.1 0l0 100l-281.1 0Z" transform="translate(188 144)" fill="rgb(255,255,255)" fill-opacity="0.85" stroke="#bbb" stroke-width="0.5" class="zr0-cls-0"></path>
<path d="M-8 -4l131.9 0l0 70l-131.9 0Z" transform="translate(1193.0801 884)" fill="rgb(255,255,255)" fill-opacity="0.85" stroke="#bbb" stroke-width="0.5" class="zr0-cls-0"></path>
<path d="M0 0l22 0l0 2l-22 0Z" transform="translate(188 155)" fill="#5470c6" class="zr0-cls-0"></path>
<text dominant-baseline="central" text-anchor="start" style="font-size:24px;font-family:Arial, Helvetica, 'Liberation Sans', sans-serif;" xml:space="preserve" x="27" y="1" transform="translate(188 155)" fill="#000">Barotitis Θ=18.4</text>
<path d="M0 -11l199.8 0l0 24l-199.8 0Z" transform="translate(188 155)" fill="transparent" class="zr0-cls-0"></path>
<path d="M0 0l22 0l0 2l-22 0Z" transform="translate(188 189)" fill="#91cc75" class="zr0-cls-0"></path>
<text dominant-baseline="central" text-anchor="start" style="font-size:24px;font-family:Arial, Helvetica, 'Liberation Sans', sans-serif;" xml:space="preserve" x="27" y="1" transform="translate(188 189)" fill="#000">Baromyringitis Θ=95.6</text>
<path d="M0 -11l265.1 0l0 24l-265.1 0Z" transform="translate(188 189)" fill="transparent" class="zr0-cls-0"></path>
<path d="M0 0l22 0l0 2l-22 0Z" transform="translate(188 223)" fill="#fac858" class="zr0-cls-0"></path>
<text dominant-baseline="central" text-anchor="start" style="font-size:24px;font-family:Arial, Helvetica, 'Liberation Sans', sans-serif;" xml:space="preserve" x="27" y="1" transform="translate(188 223)" fill="#000">Rupture Θ=150</text>
<path d="M0 -11l191.8 0l0 24l-191.8 0Z" transform="translate(188 223)" fill="transparent" class="zr0-cls-0"></path>
<path d="M0 4L16 4" transform="translate(1194.0801 893)" fill="#000" stroke="#D55E00" stroke-width="2" stroke-linecap="butt" stroke-miterlimit="10" class="zr0-cls-0"></path>
<path d="M11.2 4A3.2 3.2 0 1 1 11.2 3.7A3.2 3.2 0 0 1 11.2 4" transform="translate(1194.0801 893)" fill="#D55E00" stroke="#000" stroke-width="2" stroke-linecap="butt" stroke-miterlimit="10" class="zr0-cls-0"></path>
<text dominant-baseline="central" text-anchor="start" style="font-size:26px;font-family:Arial, Helvetica, 'Liberation Sans', sans-serif;" x="21" y="4" transform="translate(1194.0801 893)" fill="#000">Barotitis</text>
<path d="M-1 -9l115.9 0l0 26l-115.9 0Z" transform="translate(1194.0801 893)" fill="transparent" class="zr0-cls-1"></path>
<path d="M0 4L16 4" transform="translate(1194.0801 929)" fill="#000" stroke="#E69F00" stroke-width="2" stroke-dasharray="8,4" stroke-linecap="butt" stroke-miterlimit="10" class="zr0-cls-0"></path>
<path d="M8 0.8L11.2 4L8 7.2L4.8 4Z" transform="translate(1194.0801 929)" fill="#E69F00" stroke="#000" stroke-width="2" stroke-linecap="butt" stroke-miterlimit="10" class="zr0-cls-0"></path>
<text dominant-baseline="central" text-anchor="start" style="font-size:26px;font-family:Arial, Helvetica, 'Liberation Sans', sans-serif;" x="21" y="4" transform="translate(1194.0801 929)" fill="#000">Rupture</text>
<path d="M-1 -9l114.5 0l0 26l-114.5 0Z" transform="translate(1194.0801 929)" fill="transparent" class="zr0-cls-1"></path>
<path d="M-5 -5l41.8 0l0 54l-41.8 0Z" transform="translate(21 17)" fill="rgb(0,0,0)" fill-opacity="0" stroke="#ccc" stroke-width="0" class="zr0-cls-0"></path>
<path d="M-549.1 -5l1098.1 0l0 50l-1098.1 0Z" transform="translate(708.5 21)" fill="rgb(0,0,0)" fill-opacity="0" stroke="#ccc" stroke-width="0" class="zr0-cls-0"></path>
<path d="M-5 -5l41.8 0l0 54l-41.8 0Z" transform="translate(21 841)" fill="rgb(0,0,0)" fill-opacity="0" stroke="#ccc" stroke-width="0" class="zr0-cls-0"></path>
<path d="M-511.9 -5l1023.8 0l0 50l-1023.8 0Z" transform="translate(708.5 843)" fill="rgb(0,0,0)" fill-opacity="0" stroke="#ccc" stroke-width="0" class="zr0-cls-0"></path>
<text dominant-baseline="central" text-anchor="start" style="font-size:44px;font-family:Arial, Helvetica, 'Liberation Sans', sans-serif;font-weight:bold;" y="22" transform="translate(21 17)" fill="#464646">A</text>
<text dominant-baseline="central" text-anchor="middle" style="font-size:40px;font-family:Arial, Helvetica, 'Liberation Sans', sans-serif;" xml:space="preserve" y="20" transform="translate(708.5 21)" fill="#464646">Peak |ΔP| vs descent rate (25,000-ft descent, healthy patient)</text>
<text dominant-baseline="central" text-anchor="start" style="font-size:44px;font-family:Arial, Helvetica, 'Liberation Sans', sans-serif;font-weight:bold;" y="22" transform="translate(21 841)" fill="#464646">B</text>
<text dominant-baseline="central" text-anchor="middle" style="font-size:40px;font-family:Arial, Helvetica, 'Liberation Sans', sans-serif;" xml:space="preserve" y="20" transform="translate(708.5 843)" fill="#464646">Per-exposure clinical-outcome probability vs descent rate</text>
<g clip-path="url(#zr0-c3)">
<path d="M307.4 1490L452.8 1490L650 1490L847.2 1490L962.6 1490L1107.9 1481.2L1223.3 1438.3L1305.1 1408.9" fill="transparent" stroke="#E69F00" stroke-width="1.6" stroke-dasharray="6.4,3.2" stroke-linejoin="bevel" class="zr0-cls-3"></path>
</g>
<path d="M0 -1L1 0L0 1L-1 0Z" transform="matrix(5,0,0,5,307.4128,1490)" fill="#E69F00" stroke="#000" stroke-width="0.13999999999999999" class="zr0-cls-4"></path>
<path d="M0 -1L1 0L0 1L-1 0Z" transform="matrix(5,0,0,5,452.7567,1490)" fill="#E69F00" stroke="#000" stroke-width="0.13999999999999999" class="zr0-cls-4"></path>
<path d="M0 -1L1 0L0 1L-1 0Z" transform="matrix(5,0,0,5,649.976,1490)" fill="#E69F00" stroke="#000" stroke-width="0.13999999999999999" class="zr0-cls-4"></path>
<path d="M0 -1L1 0L0 1L-1 0Z" transform="matrix(5,0,0,5,847.1954,1490)" fill="#E69F00" stroke="#000" stroke-width="0.13999999999999999" class="zr0-cls-4"></path>
<path d="M0 -1L1 0L0 1L-1 0Z" transform="matrix(5,0,0,5,962.5613,1490)" fill="#E69F00" stroke="#000" stroke-width="0.13999999999999999" class="zr0-cls-4"></path>
<path d="M0 -1L1 0L0 1L-1 0Z" transform="matrix(5,0,0,5,1107.9052,1481.2167)" fill="#E69F00" stroke="#000" stroke-width="0.13999999999999999" class="zr0-cls-4"></path>
<path d="M0 -1L1 0L0 1L-1 0Z" transform="matrix(5,0,0,5,1223.2711,1438.3334)" fill="#E69F00" stroke="#000" stroke-width="0.13999999999999999" class="zr0-cls-4"></path>
<path d="M0 -1L1 0L0 1L-1 0Z" transform="matrix(5,0,0,5,1305.1245,1408.8833)" fill="#E69F00" stroke="#000" stroke-width="0.13999999999999999" class="zr0-cls-4"></path>
<text dominant-baseline="central" text-anchor="middle" style="font-size:24px;font-family:Arial, Helvetica, 'Liberation Sans', sans-serif;" y="12" transform="translate(1107.9052 1491.5667)" fill="#000">0.17%</text>
<text dominant-baseline="central" text-anchor="middle" style="font-size:24px;font-family:Arial, Helvetica, 'Liberation Sans', sans-serif;" y="12" transform="translate(1223.2711 1448.6834)" fill="#000">1.00%</text>
<text dominant-baseline="central" text-anchor="middle" style="font-size:24px;font-family:Arial, Helvetica, 'Liberation Sans', sans-serif;" y="12" transform="translate(1305.1245 1419.2333)" fill="#000">1.57%</text>
<g clip-path="url(#zr0-c4)">
<path d="M297.8 721.3L444.5 712.5L643.5 683.2L842.5 649.5L959 590.8L1105.6 334.1L1222 203.6L1304.7 142" fill="transparent" stroke="#0072B2" stroke-width="2" stroke-linejoin="bevel" class="zr0-cls-3"></path>
</g>
<g clip-path="url(#zr0-c5)">
<path d="M307.4 1490L452.8 1490L650 1487.9L847.2 1463.7L962.6 1412L1107.9 1118.5L1223.3 988.3L1305.1 978.5" fill="transparent" stroke="#D55E00" stroke-width="2" stroke-linejoin="bevel" class="zr0-cls-3"></path>
</g>
<path d="M1 0A1 1 0 1 1 1 -0.1A1 1 0 0 1 1 0" transform="matrix(5,0,0,5,297.8118,721.3333)" fill="#0072B2" stroke="#000" stroke-width="0.13999999999999999" class="zr0-cls-5"></path>
<path d="M1 0A1 1 0 1 1 1 -0.1A1 1 0 0 1 1 0" transform="matrix(5,0,0,5,444.4852,712.5333)" fill="#0072B2" stroke="#000" stroke-width="0.13999999999999999" class="zr0-cls-5"></path>
<path d="M1 0A1 1 0 1 1 1 -0.1A1 1 0 0 1 1 0" transform="matrix(5,0,0,5,643.5086,683.2)" fill="#0072B2" stroke="#000" stroke-width="0.13999999999999999" class="zr0-cls-5"></path>
<path d="M1 0A1 1 0 1 1 1 -0.1A1 1 0 0 1 1 0" transform="matrix(5,0,0,5,842.532,649.4667)" fill="#0072B2" stroke="#000" stroke-width="0.13999999999999999" class="zr0-cls-5"></path>
<path d="M1 0A1 1 0 1 1 1 -0.1A1 1 0 0 1 1 0" transform="matrix(5,0,0,5,958.9532,590.8)" fill="#0072B2" stroke="#000" stroke-width="0.13999999999999999" class="zr0-cls-5"></path>
<path d="M1 0A1 1 0 1 1 1 -0.1A1 1 0 0 1 1 0" transform="matrix(5,0,0,5,1105.6266,334.1333)" fill="#0072B2" stroke="#000" stroke-width="0.13999999999999999" class="zr0-cls-5"></path>
<path d="M1 0A1 1 0 1 1 1 -0.1A1 1 0 0 1 1 0" transform="matrix(5,0,0,5,1222.0479,203.6)" fill="#0072B2" stroke="#000" stroke-width="0.13999999999999999" class="zr0-cls-5"></path>
<path d="M1 0A1 1 0 1 1 1 -0.1A1 1 0 0 1 1 0" transform="matrix(5,0,0,5,1304.65,142)" fill="#0072B2" stroke="#000" stroke-width="0.13999999999999999" class="zr0-cls-5"></path>
<path d="M1 0A1 1 0 1 1 1 -0.1A1 1 0 0 1 1 0" transform="matrix(5,0,0,5,307.4128,1490)" fill="#D55E00" stroke="#000" stroke-width="0.13999999999999999" class="zr0-cls-6"></path>
<path d="M1 0A1 1 0 1 1 1 -0.1A1 1 0 0 1 1 0" transform="matrix(5,0,0,5,452.7567,1490)" fill="#D55E00" stroke="#000" stroke-width="0.13999999999999999" class="zr0-cls-6"></path>
<path d="M1 0A1 1 0 1 1 1 -0.1A1 1 0 0 1 1 0" transform="matrix(5,0,0,5,649.976,1487.9333)" fill="#D55E00" stroke="#000" stroke-width="0.13999999999999999" class="zr0-cls-6"></path>
<path d="M1 0A1 1 0 1 1 1 -0.1A1 1 0 0 1 1 0" transform="matrix(5,0,0,5,847.1954,1463.65)" fill="#D55E00" stroke="#000" stroke-width="0.13999999999999999" class="zr0-cls-6"></path>
<path d="M1 0A1 1 0 1 1 1 -0.1A1 1 0 0 1 1 0" transform="matrix(5,0,0,5,962.5613,1411.9833)" fill="#D55E00" stroke="#000" stroke-width="0.13999999999999999" class="zr0-cls-6"></path>
<path d="M1 0A1 1 0 1 1 1 -0.1A1 1 0 0 1 1 0" transform="matrix(5,0,0,5,1107.9052,1118.5167)" fill="#D55E00" stroke="#000" stroke-width="0.13999999999999999" class="zr0-cls-6"></path>
<path d="M1 0A1 1 0 1 1 1 -0.1A1 1 0 0 1 1 0" transform="matrix(5,0,0,5,1223.2711,988.3167)" fill="#D55E00" stroke="#000" stroke-width="0.13999999999999999" class="zr0-cls-6"></path>
<path d="M1 0A1 1 0 1 1 1 -0.1A1 1 0 0 1 1 0" transform="matrix(5,0,0,5,1305.1245,978.5)" fill="#D55E00" stroke="#000" stroke-width="0.13999999999999999" class="zr0-cls-6"></path>
<text dominant-baseline="central" text-anchor="middle" style="font-size:24px;font-family:Arial, Helvetica, 'Liberation Sans', sans-serif;" y="-12" transform="translate(297.8118 710.9833)" fill="#000">10</text>
<text dominant-baseline="central" text-anchor="middle" style="font-size:24px;font-family:Arial, Helvetica, 'Liberation Sans', sans-serif;" y="-12" transform="translate(444.4852 702.1833)" fill="#000">16</text>
<text dominant-baseline="central" text-anchor="middle" style="font-size:24px;font-family:Arial, Helvetica, 'Liberation Sans', sans-serif;" y="-12" transform="translate(643.5086 672.85)" fill="#000">36</text>
<text dominant-baseline="central" text-anchor="middle" style="font-size:24px;font-family:Arial, Helvetica, 'Liberation Sans', sans-serif;" y="-12" transform="translate(842.532 639.1167)" fill="#000">59</text>
<text dominant-baseline="central" text-anchor="middle" style="font-size:24px;font-family:Arial, Helvetica, 'Liberation Sans', sans-serif;" y="-12" transform="translate(958.9532 580.45)" fill="#000">99</text>
<text dominant-baseline="central" text-anchor="middle" style="font-size:24px;font-family:Arial, Helvetica, 'Liberation Sans', sans-serif;" y="-12" transform="translate(1105.6266 323.7833)" fill="#000">274</text>
<text dominant-baseline="central" text-anchor="middle" style="font-size:24px;font-family:Arial, Helvetica, 'Liberation Sans', sans-serif;" y="-12" transform="translate(1222.0479 193.25)" fill="#000">363</text>
<text dominant-baseline="central" text-anchor="middle" style="font-size:24px;font-family:Arial, Helvetica, 'Liberation Sans', sans-serif;" y="-12" transform="translate(1304.65 131.65)" fill="#000">405</text>
<text dominant-baseline="central" text-anchor="middle" style="font-size:24px;font-family:Arial, Helvetica, 'Liberation Sans', sans-serif;" y="-12" transform="translate(649.976 1477.5833)" fill="#000">0.04%</text>
<text dominant-baseline="central" text-anchor="middle" style="font-size:24px;font-family:Arial, Helvetica, 'Liberation Sans', sans-serif;" y="-12" transform="translate(847.1954 1453.3)" fill="#000">0.51%</text>
<text dominant-baseline="central" text-anchor="middle" style="font-size:24px;font-family:Arial, Helvetica, 'Liberation Sans', sans-serif;" y="-12" transform="translate(962.5613 1401.6333)" fill="#000">1.51%</text>
<text dominant-baseline="central" text-anchor="middle" style="font-size:24px;font-family:Arial, Helvetica, 'Liberation Sans', sans-serif;" y="-12" transform="translate(1107.9052 1108.1667)" fill="#000">7.19%</text>
<text dominant-baseline="central" text-anchor="middle" style="font-size:24px;font-family:Arial, Helvetica, 'Liberation Sans', sans-serif;" y="-12" transform="translate(1223.2711 977.9667)" fill="#000">9.71%</text>
<text dominant-baseline="central" text-anchor="middle" style="font-size:24px;font-family:Arial, Helvetica, 'Liberation Sans', sans-serif;" y="-12" transform="translate(1305.1245 968.15)" fill="#000">9.90%</text>
<defs >
<clipPath id="zr0-c0">
<path d="M180 75.3l1179 0l0 661.4l-1179 0Z" fill="#000" class="zr0-cls-0"></path>
</clipPath>
<clipPath id="zr0-c1">
<path d="M180 75.3l1179 0l0 661.4l-1179 0Z" fill="#000" class="zr0-cls-0"></path>
</clipPath>
<clipPath id="zr0-c2">
<path d="M180 75.3l1179 0l0 661.4l-1179 0Z" fill="#000" class="zr0-cls-0"></path>
</clipPath>
<clipPath id="zr0-c3">
<path d="M191 869.2l1168 0l0 621.6l-1168 0Z" fill="#000" class="zr0-cls-2"></path>
</clipPath>
<clipPath id="zr0-c4">
<path d="M180 75l1179 0l0 662l-1179 0Z" fill="#000" class="zr0-cls-2"></path>
</clipPath>
<clipPath id="zr0-c5">
<path d="M191 869l1168 0l0 622l-1168 0Z" fill="#000" class="zr0-cls-2"></path>
</clipPath>
</defs>
<style ><![CDATA[
.zr0-cls-0:hover {
pointer-events:none;
}
.zr0-cls-1:hover {
cursor:pointer;
fill:rgba(0,0,0,0);
}
.zr0-cls-2:hover {
cursor:pointer;
fill:rgba(0,0,0,1);
}
.zr0-cls-3:hover {
cursor:pointer;
}
.zr0-cls-4:hover {
cursor:pointer;
fill:rgba(253,174,0,1);
}
.zr0-cls-5:hover {
cursor:pointer;
fill:rgba(0,125,195,1);
}
.zr0-cls-6:hover {
cursor:pointer;
fill:rgba(234,103,0,1);
}

]]>

</style>
</svg>