<svg width="1417" height="1417" xmlns="http://www.w3.org/2000/svg" xmlns:xlink="http://www.w3.org/1999/xlink" version="1.1" baseProfile="full" viewBox="0 0 1417 1417">
<rect width="1417" height="1417" x="0" y="0" fill="#ffffff"></rect>
<path d="M234.5 40L234.5 1328" fill="transparent" stroke="#E5E5E5" stroke-width="0.5" stroke-dasharray="2,1" class="zr0-cls-0"></path>
<path d="M444.5 40L444.5 1328" fill="transparent" stroke="#E5E5E5" stroke-width="0.5" stroke-dasharray="2,1" class="zr0-cls-0"></path>
<path d="M654.5 40L654.5 1328" fill="transparent" stroke="#E5E5E5" stroke-width="0.5" stroke-dasharray="2,1" class="zr0-cls-0"></path>
<path d="M864.5 40L864.5 1328" fill="transparent" stroke="#E5E5E5" stroke-width="0.5" stroke-dasharray="2,1" class="zr0-cls-0"></path>
<path d="M1074.5 40L1074.5 1328" fill="transparent" stroke="#E5E5E5" stroke-width="0.5" stroke-dasharray="2,1" class="zr0-cls-0"></path>
<path d="M1284.5 40L1284.5 1328" fill="transparent" stroke="#E5E5E5" stroke-width="0.5" stroke-dasharray="2,1" class="zr0-cls-0"></path>
<path d="M1337.5 40L1337.5 1328" fill="transparent" stroke="#E5E5E5" stroke-width="0.5" stroke-dasharray="2,1" class="zr0-cls-0"></path>
<path d="M234.5 1328L234.5 40" fill="transparent" stroke="#000" stroke-linecap="round" class="zr0-cls-0"></path>
<text dominant-baseline="central" text-anchor="end" style="font-size:11px;font-family:Arial, Helvetica, 'Liberation Sans', sans-serif;" xml:space="preserve" transform="translate(226.1768 1278.4615)" fill="#000">diving altitude 48h</text>
<text dominant-baseline="central" text-anchor="end" style="font-size:11px;font-family:Arial, Helvetica, 'Liberation Sans', sans-serif;" xml:space="preserve" transform="translate(226.1768 1179.3846)" fill="#000">GI symptoms</text>
<text dominant-baseline="central" text-anchor="end" style="font-size:11px;font-family:Arial, Helvetica, 'Liberation Sans', sans-serif;" transform="translate(226.1768 1080.3077)" fill="#000">claustrophobia</text>
<text dominant-baseline="central" text-anchor="end" style="font-size:11px;font-family:Arial, Helvetica, 'Liberation Sans', sans-serif;" xml:space="preserve" transform="translate(226.1768 981.2308)" fill="#000">seizures epilepsy</text>
<text dominant-baseline="central" text-anchor="end" style="font-size:11px;font-family:Arial, Helvetica, 'Liberation Sans', sans-serif;" xml:space="preserve" transform="translate(226.1768 882.1538)" fill="#000">tobacco alcohol 24h</text>
<text dominant-baseline="central" text-anchor="end" style="font-size:11px;font-family:Arial, Helvetica, 'Liberation Sans', sans-serif;" xml:space="preserve" transform="translate(226.1768 783.0769)" fill="#000">recent msk injury</text>
<text dominant-baseline="central" text-anchor="end" style="font-size:11px;font-family:Arial, Helvetica, 'Liberation Sans', sans-serif;" xml:space="preserve" transform="translate(226.1768 684)" fill="#000">cardiac hypertension</text>
<text dominant-baseline="central" text-anchor="end" style="font-size:11px;font-family:Arial, Helvetica, 'Liberation Sans', sans-serif;" xml:space="preserve" transform="translate(226.1768 584.9231)" fill="#000">chronic disease or hosp</text>
<text dominant-baseline="central" text-anchor="end" style="font-size:11px;font-family:Arial, Helvetica, 'Liberation Sans', sans-serif;" xml:space="preserve" transform="translate(226.1768 485.8462)" fill="#000">recent dental</text>
<text dominant-baseline="central" text-anchor="end" style="font-size:11px;font-family:Arial, Helvetica, 'Liberation Sans', sans-serif;" xml:space="preserve" transform="translate(226.1768 386.7692)" fill="#000">ear URI history</text>
<text dominant-baseline="central" text-anchor="end" style="font-size:11px;font-family:Arial, Helvetica, 'Liberation Sans', sans-serif;" xml:space="preserve" transform="translate(226.1768 287.6923)" fill="#000">recent respiratory</text>
<text dominant-baseline="central" text-anchor="end" style="font-size:11px;font-family:Arial, Helvetica, 'Liberation Sans', sans-serif;" xml:space="preserve" transform="translate(226.1768 188.6154)" fill="#000">malaise fever fatigue</text>
<text dominant-baseline="central" text-anchor="end" style="font-size:11px;font-family:Arial, Helvetica, 'Liberation Sans', sans-serif;" xml:space="preserve" transform="translate(226.1768 89.5385)" fill="#000">anemia bleeding</text>
<text dominant-baseline="central" text-anchor="middle" style="font-size:11px;font-family:Arial, Helvetica, 'Liberation Sans', sans-serif;" y="5.5" transform="translate(234.1768 1336)" fill="#000">0%</text>
<text dominant-baseline="central" text-anchor="middle" style="font-size:11px;font-family:Arial, Helvetica, 'Liberation Sans', sans-serif;" y="5.5" transform="translate(444.2383 1336)" fill="#000">20%</text>
<text dominant-baseline="central" text-anchor="middle" style="font-size:11px;font-family:Arial, Helvetica, 'Liberation Sans', sans-serif;" y="5.5" transform="translate(654.2999 1336)" fill="#000">40%</text>
<text dominant-baseline="central" text-anchor="middle" style="font-size:11px;font-family:Arial, Helvetica, 'Liberation Sans', sans-serif;" y="5.5" transform="translate(864.3615 1336)" fill="#000">60%</text>
<text dominant-baseline="central" text-anchor="middle" style="font-size:11px;font-family:Arial, Helvetica, 'Liberation Sans', sans-serif;" y="5.5" transform="translate(1074.423 1336)" fill="#000">80%</text>
<text dominant-baseline="central" text-anchor="middle" style="font-size:11px;font-family:Arial, Helvetica, 'Liberation Sans', sans-serif;" y="5.5" transform="translate(1284.4846 1336)" fill="#000">100%</text>
<text dominant-baseline="central" text-anchor="middle" style="font-size:11px;font-family:Arial, Helvetica, 'Liberation Sans', sans-serif;" y="5.5" transform="translate(1337 1336)" fill="#000">105%</text>
<polygon points="250.2 1328 270 1328 270 40 250.2 40" fill="#D9D9D9" fill-opacity="0.5" stroke="#5470c6" stroke-width="0" stroke-opacity="0.5" class="zr0-cls-0"></polygon>
<g clip-path="url(#zr0-c0)">
<path d="M258.2 1278.5L258.2 1179.4L258.2 1080.3L258.2 981.2L258.2 882.2L258.2 783.1L258.2 684L258.2 584.9L258.2 485.8L258.2 386.8L258.2 287.7L258.2 188.6L258.2 89.5" fill="transparent" stroke="#000" stroke-width="1.2" stroke-dasharray="4.8,2.4" stroke-linejoin="bevel" class="zr0-cls-2"></path>
</g>
<path d="M-175.4 -5l350.7 0l0 23l-350.7 0Z" transform="translate(708.5 13)" fill="rgb(0,0,0)" fill-opacity="0" stroke="#ccc" stroke-width="0" class="zr0-cls-0"></path>
<text dominant-baseline="central" text-anchor="middle" style="font-size:13px;font-family:Arial, Helvetica, 'Liberation Sans', sans-serif;" xml:space="preserve" y="6.5" transform="translate(708.5 13)" fill="#464646">Preflight denial rate by screening flag (n = 1,004 evaluated)</text>
<path d="M234.2 1278.5L548.4 1278.5" fill="#000" stroke="#000" class="zr0-cls-1"></path>
<path d="M234.2 1273.5L234.2 1283.5" fill="#000" stroke="#000" class="zr0-cls-1"></path>
<path d="M548.4 1273.5L548.4 1283.5" fill="#000" stroke="#000" class="zr0-cls-1"></path>
<path d="M234.2 1179.4L506 1179.4" fill="#000" stroke="#000" class="zr0-cls-1"></path>
<path d="M234.2 1174.4L234.2 1184.4" fill="#000" stroke="#000" class="zr0-cls-1"></path>
<path d="M506 1174.4L506 1184.4" fill="#000" stroke="#000" class="zr0-cls-1"></path>
<path d="M234.2 1080.3L690.5 1080.3" fill="#000" stroke="#000" class="zr0-cls-1"></path>
<path d="M234.2 1075.3L234.2 1085.3" fill="#000" stroke="#000" class="zr0-cls-1"></path>
<path d="M690.5 1075.3L690.5 1085.3" fill="#000" stroke="#000" class="zr0-cls-1"></path>
<path d="M234.2 981.2L924.9 981.2" fill="#000" stroke="#000" class="zr0-cls-1"></path>
<path d="M234.2 976.2L234.2 986.2" fill="#000" stroke="#000" class="zr0-cls-1"></path>
<path d="M924.9 976.2L924.9 986.2" fill="#000" stroke="#000" class="zr0-cls-1"></path>
<path d="M244 882.2L493 882.2" fill="#000" stroke="#000" class="zr0-cls-1"></path>
<path d="M244 877.2L244 887.2" fill="#000" stroke="#000" class="zr0-cls-1"></path>
<path d="M493 877.2L493 887.2" fill="#000" stroke="#000" class="zr0-cls-1"></path>
<path d="M263.5 783.1L550.3 783.1" fill="#000" stroke="#000" class="zr0-cls-1"></path>
<path d="M263.5 778.1L263.5 788.1" fill="#000" stroke="#000" class="zr0-cls-1"></path>
<path d="M550.3 778.1L550.3 788.1" fill="#000" stroke="#000" class="zr0-cls-1"></path>
<path d="M271.8 684L511.4 684" fill="#000" stroke="#000" class="zr0-cls-1"></path>
<path d="M271.8 679L271.8 689" fill="#000" stroke="#000" class="zr0-cls-1"></path>
<path d="M511.4 679L511.4 689" fill="#000" stroke="#000" class="zr0-cls-1"></path>
<path d="M295.7 584.9L493.6 584.9" fill="#000" stroke="#000" class="zr0-cls-1"></path>
<path d="M295.7 579.9L295.7 589.9" fill="#000" stroke="#000" class="zr0-cls-1"></path>
<path d="M493.6 579.9L493.6 589.9" fill="#000" stroke="#000" class="zr0-cls-1"></path>
<path d="M281.9 485.8L571.6 485.8" fill="#000" stroke="#000" class="zr0-cls-1"></path>
<path d="M281.9 480.8L281.9 490.8" fill="#000" stroke="#000" class="zr0-cls-1"></path>
<path d="M571.6 480.8L571.6 490.8" fill="#000" stroke="#000" class="zr0-cls-1"></path>
<path d="M304 386.8L558.9 386.8" fill="#000" stroke="#000" class="zr0-cls-1"></path>
<path d="M304 381.8L304 391.8" fill="#000" stroke="#000" class="zr0-cls-1"></path>
<path d="M558.9 381.8L558.9 391.8" fill="#000" stroke="#000" class="zr0-cls-1"></path>
<path d="M403.3 287.7L723.5 287.7" fill="#000" stroke="#000" class="zr0-cls-1"></path>
<path d="M403.3 282.7L403.3 292.7" fill="#000" stroke="#000" class="zr0-cls-1"></path>
<path d="M723.5 282.7L723.5 292.7" fill="#000" stroke="#000" class="zr0-cls-1"></path>
<path d="M694.7 188.6L1284.5 188.6" fill="#000" stroke="#000" class="zr0-cls-1"></path>
<path d="M694.7 183.6L694.7 193.6" fill="#000" stroke="#000" class="zr0-cls-1"></path>
<path d="M1284.5 183.6L1284.5 193.6" fill="#000" stroke="#000" class="zr0-cls-1"></path>
<path d="M451.1 89.5L1284.5 89.5" fill="#000" stroke="#000" class="zr0-cls-1"></path>
<path d="M451.1 84.5L451.1 94.5" fill="#000" stroke="#000" class="zr0-cls-1"></path>
<path d="M1284.5 84.5L1284.5 94.5" fill="#000" stroke="#000" class="zr0-cls-1"></path>
<path d="M1 0A1 1 0 1 1 1 -0.1A1 1 0 0 1 1 0" transform="matrix(5.5,0,0,5.5,234.1768,1278.4615)" fill="#808080" fill-opacity="0.8" stroke="#000" stroke-width="0.10909090909090909" stroke-opacity="0.8" class="zr0-cls-3"></path>
<path d="M1 0A1 1 0 1 1 1 -0.1A1 1 0 0 1 1 0" transform="matrix(5.5,0,0,5.5,234.1768,1179.3846)" fill="#808080" fill-opacity="0.8" stroke="#000" stroke-width="0.10909090909090909" stroke-opacity="0.8" class="zr0-cls-3"></path>
<path d="M1 0A1 1 0 1 1 1 -0.1A1 1 0 0 1 1 0" transform="matrix(5.5,0,0,5.5,234.1768,1080.3077)" fill="#808080" fill-opacity="0.8" stroke="#000" stroke-width="0.10909090909090909" stroke-opacity="0.8" class="zr0-cls-3"></path>
<path d="M1 0A1 1 0 1 1 1 -0.1A1 1 0 0 1 1 0" transform="matrix(5.5,0,0,5.5,234.1768,981.2308)" fill="#808080" fill-opacity="0.8" stroke="#000" stroke-width="0.10909090909090909" stroke-opacity="0.8" class="zr0-cls-3"></path>
<path d="M1 0A1 1 0 1 1 1 -0.1A1 1 0 0 1 1 0" transform="matrix(5.5,0,0,5.5,289.423,882.1538)" fill="#009E73" fill-opacity="0.8" stroke="#000" stroke-width="0.10909090909090909" stroke-opacity="0.8" class="zr0-cls-4"></path>
<path d="M1 0A1 1 0 1 1 1 -0.1A1 1 0 0 1 1 0" transform="matrix(5.5,0,0,5.5,339.2075,783.0769)" fill="#E69F00" fill-opacity="0.8" stroke="#000" stroke-width="0.10909090909090909" stroke-opacity="0.8" class="zr0-cls-5"></path>
<path d="M1 0A1 1 0 1 1 1 -0.1A1 1 0 0 1 1 0" transform="matrix(5.5,0,0,5.5,342.7786,684)" fill="#E69F00" fill-opacity="0.8" stroke="#000" stroke-width="0.10909090909090909" stroke-opacity="0.8" class="zr0-cls-5"></path>
<path d="M1 0A1 1 0 1 1 1 -0.1A1 1 0 0 1 1 0" transform="matrix(5.5,0,0,5.5,365.4652,584.9231)" fill="#E69F00" fill-opacity="0.8" stroke="#000" stroke-width="0.10909090909090909" stroke-opacity="0.8" class="zr0-cls-5"></path>
<path d="M1 0A1 1 0 1 1 1 -0.1A1 1 0 0 1 1 0" transform="matrix(5.5,0,0,5.5,371.1369,485.8462)" fill="#E69F00" fill-opacity="0.8" stroke="#000" stroke-width="0.10909090909090909" stroke-opacity="0.8" class="zr0-cls-5"></path>
<path d="M1 0A1 1 0 1 1 1 -0.1A1 1 0 0 1 1 0" transform="matrix(5.5,0,0,5.5,393.2984,386.7692)" fill="#E69F00" fill-opacity="0.8" stroke="#000" stroke-width="0.10909090909090909" stroke-opacity="0.8" class="zr0-cls-5"></path>
<path d="M1 0A1 1 0 1 1 1 -0.1A1 1 0 0 1 1 0" transform="matrix(5.5,0,0,5.5,539.0811,287.6923)" fill="#D55E00" fill-opacity="0.8" stroke="#000" stroke-width="0.10909090909090909" stroke-opacity="0.8" class="zr0-cls-6"></path>
<path d="M1 0A1 1 0 1 1 1 -0.1A1 1 0 0 1 1 0" transform="matrix(5.5,0,0,5.5,1284.4846,188.6154)" fill="#D55E00" fill-opacity="0.8" stroke="#000" stroke-width="0.10909090909090909" stroke-opacity="0.8" class="zr0-cls-6"></path>
<path d="M1 0A1 1 0 1 1 1 -0.1A1 1 0 0 1 1 0" transform="matrix(5.5,0,0,5.5,1284.4846,89.5385)" fill="#D55E00" fill-opacity="0.8" stroke="#000" stroke-width="0.10909090909090909" stroke-opacity="0.8" class="zr0-cls-6"></path>
<text dominant-baseline="central" text-anchor="start" style="font-size:10px;font-family:Arial,sans-serif;" x="1345" y="1278.4615384615386" fill="#000">0/9</text>
<text dominant-baseline="central" text-anchor="start" style="font-size:10px;font-family:Arial,sans-serif;" x="1345" y="1179.3846153846152" fill="#000">0/11</text>
<text dominant-baseline="central" text-anchor="start" style="font-size:10px;font-family:Arial,sans-serif;" x="1345" y="1080.3076923076924" fill="#000">0/5</text>
<text dominant-baseline="central" text-anchor="start" style="font-size:10px;font-family:Arial,sans-serif;" x="1345" y="981.2307692307692" fill="#000">0/2</text>
<text dominant-baseline="central" text-anchor="start" style="font-size:10px;font-family:Arial,sans-serif;" x="1345" y="882.1538461538461" fill="#000">1/19</text>
<text dominant-baseline="central" text-anchor="start" style="font-size:10px;font-family:Arial,sans-serif;" x="1345" y="783.076923076923" fill="#000">2/20</text>
<text dominant-baseline="central" text-anchor="start" style="font-size:10px;font-family:Arial,sans-serif;" x="1345" y="683.9999999999999" fill="#000">3/29</text>
<text dominant-baseline="central" text-anchor="start" style="font-size:10px;font-family:Arial,sans-serif;" x="1345" y="584.9230769230768" fill="#000">6/48</text>
<text dominant-baseline="central" text-anchor="start" style="font-size:10px;font-family:Arial,sans-serif;" x="1345" y="485.8461538461537" fill="#000">3/23</text>
<text dominant-baseline="central" text-anchor="start" style="font-size:10px;font-family:Arial,sans-serif;" x="1345" y="386.7692307692306" fill="#000">5/33</text>
<text dominant-baseline="central" text-anchor="start" style="font-size:10px;font-family:Arial,sans-serif;" x="1345" y="287.6923076923076" fill="#000">9/31</text>
<text dominant-baseline="central" text-anchor="start" style="font-size:10px;font-family:Arial,sans-serif;" x="1345" y="188.61538461538453" fill="#000">3/3</text>
<text dominant-baseline="central" text-anchor="start" style="font-size:10px;font-family:Arial,sans-serif;" x="1345" y="89.53846153846143" fill="#000">1/1</text>
<text dominant-baseline="central" text-anchor="middle" style="font: 12px Arial,sans-serif" xml:space="preserve" y="6" transform="translate(708.5 1393)" fill="#000">Denial rate (%) with Wilson 95% CI</text>
<defs >
<clipPath id="zr0-c0">
<path d="M233 39.4l1106 0l0 1289.2l-1106 0Z" fill="#000" class="zr0-cls-1"></path>
</clipPath>
</defs>
<style ><![CDATA[
.zr0-cls-0:hover {
pointer-events:none;
}
.zr0-cls-1:hover {
cursor:pointer;
fill:rgba(0,0,0,1);
}
.zr0-cls-2:hover {
cursor:pointer;
}
.zr0-cls-3:hover {
cursor:pointer;
fill:rgba(140,140,140,1);
}
.zr0-cls-4:hover {
cursor:pointer;
fill:rgba(0,173,126,1);
}
.zr0-cls-5:hover {
cursor:pointer;
fill:rgba(253,174,0,1);
}
.zr0-cls-6:hover {
cursor:pointer;
fill:rgba(234,103,0,1);
}

]]>

</style>
</svg>