<svg width="1890" height="827" xmlns="http://www.w3.org/2000/svg" xmlns:xlink="http://www.w3.org/1999/xlink" version="1.1" baseProfile="full" viewBox="0 0 1890 827">
<rect width="1890" height="827" x="0" y="0" fill="#ffffff"></rect>
<path d="M86.4 751.5L1860 751.5" fill="transparent" stroke="#E5E5E5" stroke-width="0.5" stroke-dasharray="2,1" class="zr0-cls-0"></path>
<path d="M86.4 679.5L1860 679.5" fill="transparent" stroke="#E5E5E5" stroke-width="0.5" stroke-dasharray="2,1" class="zr0-cls-0"></path>
<path d="M86.4 606.5L1860 606.5" fill="transparent" stroke="#E5E5E5" stroke-width="0.5" stroke-dasharray="2,1" class="zr0-cls-0"></path>
<path d="M86.4 534.5L1860 534.5" fill="transparent" stroke="#E5E5E5" stroke-width="0.5" stroke-dasharray="2,1" class="zr0-cls-0"></path>
<path d="M86.4 462.5L1860 462.5" fill="transparent" stroke="#E5E5E5" stroke-width="0.5" stroke-dasharray="2,1" class="zr0-cls-0"></path>
<path d="M86.4 390.5L1860 390.5" fill="transparent" stroke="#E5E5E5" stroke-width="0.5" stroke-dasharray="2,1" class="zr0-cls-0"></path>
<path d="M60.5 40L60.5 221" fill="transparent" stroke="#E5E5E5" stroke-width="0.5" stroke-dasharray="2,1" class="zr0-cls-0"></path>
<path d="M420.5 40L420.5 221" fill="transparent" stroke="#E5E5E5" stroke-width="0.5" stroke-dasharray="2,1" class="zr0-cls-0"></path>
<path d="M780.5 40L780.5 221" fill="transparent" stroke="#E5E5E5" stroke-width="0.5" stroke-dasharray="2,1" class="zr0-cls-0"></path>
<path d="M1140.5 40L1140.5 221" fill="transparent" stroke="#E5E5E5" stroke-width="0.5" stroke-dasharray="2,1" class="zr0-cls-0"></path>
<path d="M1500.5 40L1500.5 221" fill="transparent" stroke="#E5E5E5" stroke-width="0.5" stroke-dasharray="2,1" class="zr0-cls-0"></path>
<path d="M1860.5 40L1860.5 221" fill="transparent" stroke="#E5E5E5" stroke-width="0.5" stroke-dasharray="2,1" class="zr0-cls-0"></path>
<path d="M86.5 751L86.5 390" fill="transparent" stroke="#000" stroke-linecap="round" class="zr0-cls-0"></path>
<text dominant-baseline="central" text-anchor="middle" style="font-size:12px;font-family:Arial, Helvetica, 'Liberation Sans', sans-serif;" xml:space="preserve" y="-6" transform="matrix(0,-1,1,0,48.353,570.5)" fill="#000">Number of subjects</text>
<text dominant-baseline="central" text-anchor="middle" style="font-size:12px;font-family:Arial, Helvetica, 'Liberation Sans', sans-serif;" xml:space="preserve" y="6" transform="translate(960 249)" fill="#000">Percent of cohort (%)</text>
<path d="M86.4 751.5L1860 751.5" fill="transparent" stroke="#000" stroke-linecap="round" class="zr0-cls-0"></path>
<text dominant-baseline="central" text-anchor="middle" style="font-size:12px;font-family:Arial, Helvetica, 'Liberation Sans', sans-serif;" xml:space="preserve" y="6" transform="translate(973.1765 779)" fill="#000">SpO₂ (%)</text>
<path d="M86.4 751.5L81.4 751.5" fill="transparent" stroke="#000" class="zr0-cls-0"></path>
<path d="M86.4 679.5L81.4 679.5" fill="transparent" stroke="#000" class="zr0-cls-0"></path>
<path d="M86.4 606.5L81.4 606.5" fill="transparent" stroke="#000" class="zr0-cls-0"></path>
<path d="M86.4 534.5L81.4 534.5" fill="transparent" stroke="#000" class="zr0-cls-0"></path>
<path d="M86.4 462.5L81.4 462.5" fill="transparent" stroke="#000" class="zr0-cls-0"></path>
<path d="M86.4 390.5L81.4 390.5" fill="transparent" stroke="#000" class="zr0-cls-0"></path>
<path d="M86.5 751L86.5 756" fill="transparent" stroke="#000" class="zr0-cls-0"></path>
<path d="M197.5 751L197.5 756" fill="transparent" stroke="#000" class="zr0-cls-0"></path>
<path d="M308.5 751L308.5 756" fill="transparent" stroke="#000" class="zr0-cls-0"></path>
<path d="M419.5 751L419.5 756" fill="transparent" stroke="#000" class="zr0-cls-0"></path>
<path d="M530.5 751L530.5 756" fill="transparent" stroke="#000" class="zr0-cls-0"></path>
<path d="M640.5 751L640.5 756" fill="transparent" stroke="#000" class="zr0-cls-0"></path>
<path d="M751.5 751L751.5 756" fill="transparent" stroke="#000" class="zr0-cls-0"></path>
<path d="M862.5 751L862.5 756" fill="transparent" stroke="#000" class="zr0-cls-0"></path>
<path d="M973.5 751L973.5 756" fill="transparent" stroke="#000" class="zr0-cls-0"></path>
<path d="M1084.5 751L1084.5 756" fill="transparent" stroke="#000" class="zr0-cls-0"></path>
<path d="M1195.5 751L1195.5 756" fill="transparent" stroke="#000" class="zr0-cls-0"></path>
<path d="M1305.5 751L1305.5 756" fill="transparent" stroke="#000" class="zr0-cls-0"></path>
<path d="M1416.5 751L1416.5 756" fill="transparent" stroke="#000" class="zr0-cls-0"></path>
<path d="M1527.5 751L1527.5 756" fill="transparent" stroke="#000" class="zr0-cls-0"></path>
<path d="M1638.5 751L1638.5 756" fill="transparent" stroke="#000" class="zr0-cls-0"></path>
<path d="M1749.5 751L1749.5 756" fill="transparent" stroke="#000" class="zr0-cls-0"></path>
<path d="M1860.5 751L1860.5 756" fill="transparent" stroke="#000" class="zr0-cls-0"></path>
<text dominant-baseline="central" text-anchor="end" style="font-size:11px;font-family:Arial, Helvetica, 'Liberation Sans', sans-serif;" transform="translate(78.353 751)" fill="#000">0</text>
<text dominant-baseline="central" text-anchor="end" style="font-size:11px;font-family:Arial, Helvetica, 'Liberation Sans', sans-serif;" transform="translate(78.353 678.8)" fill="#000">50</text>
<text dominant-baseline="central" text-anchor="end" style="font-size:11px;font-family:Arial, Helvetica, 'Liberation Sans', sans-serif;" transform="translate(78.353 606.6)" fill="#000">100</text>
<text dominant-baseline="central" text-anchor="end" style="font-size:11px;font-family:Arial, Helvetica, 'Liberation Sans', sans-serif;" transform="translate(78.353 534.4)" fill="#000">150</text>
<text dominant-baseline="central" text-anchor="end" style="font-size:11px;font-family:Arial, Helvetica, 'Liberation Sans', sans-serif;" transform="translate(78.353 462.2)" fill="#000">200</text>
<text dominant-baseline="central" text-anchor="end" style="font-size:11px;font-family:Arial, Helvetica, 'Liberation Sans', sans-serif;" transform="translate(78.353 390)" fill="#000">250</text>
<text dominant-baseline="central" text-anchor="middle" style="font-size:11px;font-family:Arial, Helvetica, 'Liberation Sans', sans-serif;" y="5.5" transform="translate(60 229)" fill="#000">0%</text>
<text dominant-baseline="central" text-anchor="middle" style="font-size:11px;font-family:Arial, Helvetica, 'Liberation Sans', sans-serif;" y="5.5" transform="translate(420 229)" fill="#000">20%</text>
<text dominant-baseline="central" text-anchor="middle" style="font-size:11px;font-family:Arial, Helvetica, 'Liberation Sans', sans-serif;" y="5.5" transform="translate(780 229)" fill="#000">40%</text>
<text dominant-baseline="central" text-anchor="middle" style="font-size:11px;font-family:Arial, Helvetica, 'Liberation Sans', sans-serif;" y="5.5" transform="translate(1140 229)" fill="#000">60%</text>
<text dominant-baseline="central" text-anchor="middle" style="font-size:11px;font-family:Arial, Helvetica, 'Liberation Sans', sans-serif;" y="5.5" transform="translate(1500 229)" fill="#000">80%</text>
<text dominant-baseline="central" text-anchor="middle" style="font-size:11px;font-family:Arial, Helvetica, 'Liberation Sans', sans-serif;" y="5.5" transform="translate(1860 229)" fill="#000">100%</text>
<text dominant-baseline="central" text-anchor="middle" style="font-size:11px;font-family:Arial, Helvetica, 'Liberation Sans', sans-serif;" y="5.5" transform="translate(141.7795 759)" fill="#000">85</text>
<text dominant-baseline="central" text-anchor="middle" style="font-size:11px;font-family:Arial, Helvetica, 'Liberation Sans', sans-serif;" y="5.5" transform="translate(252.6324 759)" fill="#000">86</text>
<text dominant-baseline="central" text-anchor="middle" style="font-size:11px;font-family:Arial, Helvetica, 'Liberation Sans', sans-serif;" y="5.5" transform="translate(363.4854 759)" fill="#000">87</text>
<text dominant-baseline="central" text-anchor="middle" style="font-size:11px;font-family:Arial, Helvetica, 'Liberation Sans', sans-serif;" y="5.5" transform="translate(474.3383 759)" fill="#000">88</text>
<text dominant-baseline="central" text-anchor="middle" style="font-size:11px;font-family:Arial, Helvetica, 'Liberation Sans', sans-serif;" y="5.5" transform="translate(585.1912 759)" fill="#000">89</text>
<text dominant-baseline="central" text-anchor="middle" style="font-size:11px;font-family:Arial, Helvetica, 'Liberation Sans', sans-serif;" y="5.5" transform="translate(696.0442 759)" fill="#000">90</text>
<text dominant-baseline="central" text-anchor="middle" style="font-size:11px;font-family:Arial, Helvetica, 'Liberation Sans', sans-serif;" y="5.5" transform="translate(806.8971 759)" fill="#000">91</text>
<text dominant-baseline="central" text-anchor="middle" style="font-size:11px;font-family:Arial, Helvetica, 'Liberation Sans', sans-serif;" y="5.5" transform="translate(917.75 759)" fill="#000">92</text>
<text dominant-baseline="central" text-anchor="middle" style="font-size:11px;font-family:Arial, Helvetica, 'Liberation Sans', sans-serif;" y="5.5" transform="translate(1028.603 759)" fill="#000">93</text>
<text dominant-baseline="central" text-anchor="middle" style="font-size:11px;font-family:Arial, Helvetica, 'Liberation Sans', sans-serif;" y="5.5" transform="translate(1139.4559 759)" fill="#000">94</text>
<text dominant-baseline="central" text-anchor="middle" style="font-size:11px;font-family:Arial, Helvetica, 'Liberation Sans', sans-serif;" y="5.5" transform="translate(1250.3089 759)" fill="#000">95</text>
<text dominant-baseline="central" text-anchor="middle" style="font-size:11px;font-family:Arial, Helvetica, 'Liberation Sans', sans-serif;" y="5.5" transform="translate(1361.1618 759)" fill="#000">96</text>
<text dominant-baseline="central" text-anchor="middle" style="font-size:11px;font-family:Arial, Helvetica, 'Liberation Sans', sans-serif;" y="5.5" transform="translate(1472.0147 759)" fill="#000">97</text>
<text dominant-baseline="central" text-anchor="middle" style="font-size:11px;font-family:Arial, Helvetica, 'Liberation Sans', sans-serif;" y="5.5" transform="translate(1582.8677 759)" fill="#000">98</text>
<text dominant-baseline="central" text-anchor="middle" style="font-size:11px;font-family:Arial, Helvetica, 'Liberation Sans', sans-serif;" y="5.5" transform="translate(1693.7206 759)" fill="#000">99</text>
<text dominant-baseline="central" text-anchor="middle" style="font-size:11px;font-family:Arial, Helvetica, 'Liberation Sans', sans-serif;" y="5.5" transform="translate(1804.5735 759)" fill="#000">100</text>
<polygon points="86.4 751 640.6 751 640.6 390 86.4 390" fill="#D55E00" fill-opacity="0.1" stroke="#0072B2" stroke-width="0" stroke-opacity="0.1" class="zr0-cls-0"></polygon>
<polygon points="640.6 751 973.2 751 973.2 390 640.6 390" fill="#F0E442" fill-opacity="0.2" stroke="#0072B2" stroke-width="0" stroke-opacity="0.2" class="zr0-cls-0"></polygon>
<polygon points="973.2 751 1416.6 751 1416.6 390 973.2 390" fill="#009E73" fill-opacity="0.1" stroke="#0072B2" stroke-width="0" stroke-opacity="0.1" class="zr0-cls-0"></polygon>
<polygon points="1416.6 751 1860 751 1860 390 1416.6 390" fill="#56B4E9" fill-opacity="0.15" stroke="#0072B2" stroke-width="0" stroke-opacity="0.15" class="zr0-cls-0"></polygon>
<path d="M60.8 91.3l464.7 0l0 78.5l-464.7 0Z" fill="#009E73" stroke="#fff" stroke-width="1.5" class="zr0-cls-1"></path>
<path d="M527 91.3l257.7 0l0 78.5l-257.7 0Z" fill="#F0E442" stroke="#fff" stroke-width="1.5" class="zr0-cls-2"></path>
<path d="M786.2 91.3l678.9 0l0 78.5l-678.9 0Z" fill="#E69F00" stroke="#fff" stroke-width="1.5" class="zr0-cls-3"></path>
<path d="M1466.6 91.3l371.1 0l0 78.5l-371.1 0Z" fill="#D55E00" stroke="#fff" stroke-width="1.5" class="zr0-cls-4"></path>
<path d="M1839.2 91.3l3.9 0l0 78.5l-3.9 0Z" fill="#7f1d1d" stroke="#fff" stroke-width="1.5" class="zr0-cls-5"></path>
<path d="M1844.6 91.3l14.7 0l0 78.5l-14.7 0Z" fill="#56B4E9" stroke="#fff" stroke-width="1.5" class="zr0-cls-6"></path>
<path d="M94.7 751l94.2 0l0 0l-94.2 0Z" fill="#0072B2" stroke="#000" stroke-width="0.4" class="zr0-cls-7"></path>
<path d="M205.5 751l94.2 0l0 0l-94.2 0Z" fill="#0072B2" stroke="#000" stroke-width="0.4" class="zr0-cls-7"></path>
<path d="M316.4 751l94.2 0l0 0l-94.2 0Z" fill="#0072B2" stroke="#000" stroke-width="0.4" class="zr0-cls-7"></path>
<path d="M427.2 751l94.2 0l0 0l-94.2 0Z" fill="#0072B2" stroke="#000" stroke-width="0.4" class="zr0-cls-7"></path>
<path d="M538.1 751l94.2 0l0 0l-94.2 0Z" fill="#0072B2" stroke="#000" stroke-width="0.4" class="zr0-cls-7"></path>
<path d="M649.1 750.8l93.8 0l0 -9.7l-93.8 0Z" fill="#0072B2" stroke="#000" stroke-width="0.4" class="zr0-cls-7"></path>
<path d="M760 750.8l93.8 0l0 -37.1l-93.8 0Z" fill="#0072B2" stroke="#000" stroke-width="0.4" class="zr0-cls-7"></path>
<path d="M870.8 750.8l93.8 0l0 -112.2l-93.8 0Z" fill="#0072B2" stroke="#000" stroke-width="0.4" class="zr0-cls-7"></path>
<path d="M981.7 750.8l93.8 0l0 -151.2l-93.8 0Z" fill="#0072B2" stroke="#000" stroke-width="0.4" class="zr0-cls-7"></path>
<path d="M1092.5 750.8l93.8 0l0 -271.1l-93.8 0Z" fill="#0072B2" stroke="#000" stroke-width="0.4" class="zr0-cls-7"></path>
<path d="M1203.4 750.8l93.8 0l0 -288.4l-93.8 0Z" fill="#0072B2" stroke="#000" stroke-width="0.4" class="zr0-cls-7"></path>
<path d="M1314.2 750.8l93.8 0l0 -314.4l-93.8 0Z" fill="#0072B2" stroke="#000" stroke-width="0.4" class="zr0-cls-7"></path>
<path d="M1425.1 750.8l93.8 0l0 -171.4l-93.8 0Z" fill="#0072B2" stroke="#000" stroke-width="0.4" class="zr0-cls-7"></path>
<path d="M1536 750.8l93.8 0l0 -73.2l-93.8 0Z" fill="#0072B2" stroke="#000" stroke-width="0.4" class="zr0-cls-7"></path>
<path d="M1646.8 750.8l93.8 0l0 -9.7l-93.8 0Z" fill="#0072B2" stroke="#000" stroke-width="0.4" class="zr0-cls-7"></path>
<path d="M1757.5 751l94.2 0l0 0l-94.2 0Z" fill="#0072B2" stroke="#000" stroke-width="0.4" class="zr0-cls-7"></path>
<text dominant-baseline="central" text-anchor="middle" style="font-size:11px;font-family:Arial, Helvetica, 'Liberation Sans', sans-serif;font-weight:bold;" transform="translate(293.1 130.5)" fill="#000">25.9%</text>
<text dominant-baseline="central" text-anchor="middle" style="font-size:11px;font-family:Arial, Helvetica, 'Liberation Sans', sans-serif;font-weight:bold;" transform="translate(655.8 130.5)" fill="#000">14.4%</text>
<text dominant-baseline="central" text-anchor="middle" style="font-size:11px;font-family:Arial, Helvetica, 'Liberation Sans', sans-serif;font-weight:bold;" transform="translate(1125.6 130.5)" fill="#000">37.8%</text>
<text dominant-baseline="central" text-anchor="middle" style="font-size:11px;font-family:Arial, Helvetica, 'Liberation Sans', sans-serif;font-weight:bold;" transform="translate(1652.1 130.5)" fill="#000">20.7%</text>
<path d="M-5 -5l843 0l0 22l-843 0Z" transform="translate(528.4937 285)" fill="rgb(0,0,0)" fill-opacity="0" stroke="#ccc" stroke-width="0" class="zr0-cls-0"></path>
<path d="M0 0l14 0l0 10l-14 0Z" transform="translate(529.4937 286)" fill="#009E73" stroke="#fff" stroke-width="2" stroke-linecap="butt" stroke-miterlimit="10" class="zr0-cls-0"></path>
<text dominant-baseline="central" text-anchor="start" style="font-size:10px;font-family:Arial, Helvetica, 'Liberation Sans', sans-serif;" xml:space="preserve" x="19" y="5" transform="translate(529.4937 286)" fill="#000">Normal (&lt;120/&lt;80)</text>
<path d="M-1 -1l103.9 0l0 12l-103.9 0Z" transform="translate(529.4937 286)" fill="transparent" class="zr0-cls-8"></path>
<path d="M0 0l14 0l0 10l-14 0Z" transform="translate(643.4243 286)" fill="#F0E442" stroke="#fff" stroke-width="2" stroke-linecap="butt" stroke-miterlimit="10" class="zr0-cls-0"></path>
<text dominant-baseline="central" text-anchor="start" style="font-size:10px;font-family:Arial, Helvetica, 'Liberation Sans', sans-serif;" xml:space="preserve" x="19" y="5" transform="translate(643.4243 286)" fill="#000">Elevated (120–129/&lt;80)</text>
<path d="M-1 -1l127 0l0 12l-127 0Z" transform="translate(643.4243 286)" fill="transparent" class="zr0-cls-8"></path>
<path d="M0 0l14 0l0 10l-14 0Z" transform="translate(780.4507 286)" fill="#E69F00" stroke="#fff" stroke-width="2" stroke-linecap="butt" stroke-miterlimit="10" class="zr0-cls-0"></path>
<text dominant-baseline="central" text-anchor="start" style="font-size:10px;font-family:Arial, Helvetica, 'Liberation Sans', sans-serif;" xml:space="preserve" x="19" y="5" transform="translate(780.4507 286)" fill="#000">Stage-1 HTN (130–139/80–89)</text>
<path d="M-1 -1l157.3 0l0 12l-157.3 0Z" transform="translate(780.4507 286)" fill="transparent" class="zr0-cls-8"></path>
<path d="M0 0l14 0l0 10l-14 0Z" transform="translate(947.7603 286)" fill="#D55E00" stroke="#fff" stroke-width="2" stroke-linecap="butt" stroke-miterlimit="10" class="zr0-cls-0"></path>
<text dominant-baseline="central" text-anchor="start" style="font-size:10px;font-family:Arial, Helvetica, 'Liberation Sans', sans-serif;" xml:space="preserve" x="19" y="5" transform="translate(947.7603 286)" fill="#000">Stage-2 HTN (≥140/90)</text>
<path d="M-1 -1l123.9 0l0 12l-123.9 0Z" transform="translate(947.7603 286)" fill="transparent" class="zr0-cls-8"></path>
<path d="M0 0l14 0l0 10l-14 0Z" transform="translate(1081.6274 286)" fill="#7f1d1d" stroke="#fff" stroke-width="2" stroke-linecap="butt" stroke-miterlimit="10" class="zr0-cls-0"></path>
<text dominant-baseline="central" text-anchor="start" style="font-size:10px;font-family:Arial, Helvetica, 'Liberation Sans', sans-serif;" xml:space="preserve" x="19" y="5" transform="translate(1081.6274 286)" fill="#000">Hypertensive crisis (≥180/120)</text>
<path d="M-1 -1l155 0l0 12l-155 0Z" transform="translate(1081.6274 286)" fill="transparent" class="zr0-cls-8"></path>
<path d="M0 0l14 0l0 10l-14 0Z" transform="translate(1246.6128 286)" fill="#56B4E9" stroke="#fff" stroke-width="2" stroke-linecap="butt" stroke-miterlimit="10" class="zr0-cls-0"></path>
<text dominant-baseline="central" text-anchor="start" style="font-size:10px;font-family:Arial, Helvetica, 'Liberation Sans', sans-serif;" xml:space="preserve" x="19" y="5" transform="translate(1246.6128 286)" fill="#000">Hypotension (&lt;90/60)</text>
<path d="M-1 -1l115.9 0l0 12l-115.9 0Z" transform="translate(1246.6128 286)" fill="transparent" class="zr0-cls-8"></path>
<path d="M-5 -5l21.6 0l0 26l-21.6 0Z" transform="translate(13 11)" fill="rgb(0,0,0)" fill-opacity="0" stroke="#ccc" stroke-width="0" class="zr0-cls-0"></path>
<path d="M-217.8 -5l435.6 0l0 23l-435.6 0Z" transform="translate(945 13)" fill="rgb(0,0,0)" fill-opacity="0" stroke="#ccc" stroke-width="0" class="zr0-cls-0"></path>
<path d="M-5 -5l21.6 0l0 26l-21.6 0Z" transform="translate(13 355)" fill="rgb(0,0,0)" fill-opacity="0" stroke="#ccc" stroke-width="0" class="zr0-cls-0"></path>
<path d="M-144.6 -5l289.3 0l0 23l-289.3 0Z" transform="translate(945 357)" fill="rgb(0,0,0)" fill-opacity="0" stroke="#ccc" stroke-width="0" class="zr0-cls-0"></path>
<text dominant-baseline="central" text-anchor="start" style="font-size:16px;font-family:Arial, Helvetica, 'Liberation Sans', sans-serif;font-weight:bold;" y="8" transform="translate(13 11)" fill="#464646">A</text>
<text dominant-baseline="central" text-anchor="middle" style="font-size:13px;font-family:Arial, Helvetica, 'Liberation Sans', sans-serif;" xml:space="preserve" y="6.5" transform="translate(945 13)" fill="#464646">Blood-pressure category distribution at 2,640 m preflight (ACC/AHA 2017)</text>
<text dominant-baseline="central" text-anchor="start" style="font-size:16px;font-family:Arial, Helvetica, 'Liberation Sans', sans-serif;font-weight:bold;" y="8" transform="translate(13 355)" fill="#464646">B</text>
<text dominant-baseline="central" text-anchor="middle" style="font-size:13px;font-family:Arial, Helvetica, 'Liberation Sans', sans-serif;" xml:space="preserve" y="6.5" transform="translate(945 357)" fill="#464646">SpO₂ distribution at 2,640 m preflight (n = 1,004)</text>
<style ><![CDATA[
.zr0-cls-0:hover {
pointer-events:none;
}
.zr0-cls-1:hover {
cursor:pointer;
fill:rgba(0,173,126,1);
}
.zr0-cls-2:hover {
cursor:pointer;
fill:rgba(255,250,72,1);
}
.zr0-cls-3:hover {
cursor:pointer;
fill:rgba(253,174,0,1);
}
.zr0-cls-4:hover {
cursor:pointer;
fill:rgba(234,103,0,1);
}
.zr0-cls-5:hover {
cursor:pointer;
fill:rgba(139,31,31,1);
}
.zr0-cls-6:hover {
cursor:pointer;
fill:rgba(94,198,255,1);
}
.zr0-cls-7:hover {
cursor:pointer;
fill:rgba(0,125,195,1);
}
.zr0-cls-8:hover {
cursor:pointer;
fill:rgba(0,0,0,0);
}

]]>

</style>
</svg>