<svg width="1890" height="1122" xmlns="http://www.w3.org/2000/svg" xmlns:xlink="http://www.w3.org/1999/xlink" version="1.1" baseProfile="full" viewBox="0 0 1890 1122">
<rect width="1890" height="1122" x="0" y="0" fill="#ffffff"></rect>
<path d="M403.5 36L403.5 1033" fill="transparent" stroke="#E5E5E5" stroke-width="0.5" stroke-dasharray="2,1" class="zr0-cls-0"></path>
<path d="M751.5 36L751.5 1033" fill="transparent" stroke="#E5E5E5" stroke-width="0.5" stroke-dasharray="2,1" class="zr0-cls-0"></path>
<path d="M1099.5 36L1099.5 1033" fill="transparent" stroke="#E5E5E5" stroke-width="0.5" stroke-dasharray="2,1" class="zr0-cls-0"></path>
<path d="M1447.5 36L1447.5 1033" fill="transparent" stroke="#E5E5E5" stroke-width="0.5" stroke-dasharray="2,1" class="zr0-cls-0"></path>
<path d="M1795.5 36L1795.5 1033" fill="transparent" stroke="#E5E5E5" stroke-width="0.5" stroke-dasharray="2,1" class="zr0-cls-0"></path>
<path d="M403.5 1033L403.5 36" fill="transparent" stroke="#000" stroke-linecap="round" class="zr0-cls-0"></path>
<text dominant-baseline="central" text-anchor="end" style="font-size:11px;font-family:Arial, Helvetica, 'Liberation Sans', sans-serif;" xml:space="preserve" transform="translate(395.0513 961.7857)" fill="#000">Nakdimon 2022 (Israeli AF, MEB+sinus)</text>
<text dominant-baseline="central" text-anchor="end" style="font-size:11px;font-family:Arial, Helvetica, 'Liberation Sans', sans-serif;" xml:space="preserve" transform="translate(395.0513 819.3571)" fill="#000">Landolfi 2009 (Italian AF, TEED-graded)</text>
<text dominant-baseline="central" text-anchor="end" style="font-size:11px;font-family:Arial, Helvetica, 'Liberation Sans', sans-serif;" xml:space="preserve" transform="translate(395.0513 676.9286)" fill="#000">Morgagni 2012 — 25,000 ft (Italian AF)</text>
<text dominant-baseline="central" text-anchor="end" style="font-size:11px;font-family:Arial, Helvetica, 'Liberation Sans', sans-serif;" xml:space="preserve" transform="translate(395.0513 534.5)" fill="#000">Morgagni 2010 — unscreened controls</text>
<text dominant-baseline="central" text-anchor="end" style="font-size:11px;font-family:Arial, Helvetica, 'Liberation Sans', sans-serif;" xml:space="preserve" transform="translate(395.0513 392.0714)" fill="#000">Morgagni 2010 — pre-screened subset</text>
<text dominant-baseline="central" text-anchor="end" style="font-size:11px;font-family:Arial, Helvetica, 'Liberation Sans', sans-serif;" xml:space="preserve" transform="translate(395.0513 249.6429)" fill="#000">Morgagni 2010 — overall (Italian AF)</text>
<text dominant-baseline="central" text-anchor="end" style="font-size:11px;font-family:Arial, Helvetica, 'Liberation Sans', sans-serif;" xml:space="preserve" transform="translate(395.0513 107.2143)" fill="#000">FAC 2010–2026 pooled (this study)</text>
<text dominant-baseline="central" text-anchor="middle" style="font-size:11px;font-family:Arial, Helvetica, 'Liberation Sans', sans-serif;" y="5.5" transform="translate(403.0513 1041)" fill="#000">0%</text>
<text dominant-baseline="central" text-anchor="middle" style="font-size:11px;font-family:Arial, Helvetica, 'Liberation Sans', sans-serif;" y="5.5" transform="translate(751.0385 1041)" fill="#000">2%</text>
<text dominant-baseline="central" text-anchor="middle" style="font-size:11px;font-family:Arial, Helvetica, 'Liberation Sans', sans-serif;" y="5.5" transform="translate(1099.0256 1041)" fill="#000">4%</text>
<text dominant-baseline="central" text-anchor="middle" style="font-size:11px;font-family:Arial, Helvetica, 'Liberation Sans', sans-serif;" y="5.5" transform="translate(1447.0128 1041)" fill="#000">6%</text>
<text dominant-baseline="central" text-anchor="middle" style="font-size:11px;font-family:Arial, Helvetica, 'Liberation Sans', sans-serif;" y="5.5" transform="translate(1795 1041)" fill="#000">8%</text>
<polygon points="761.5 1033 881.5 1033 881.5 36 761.5 36" fill="#D55E00" fill-opacity="0.1" stroke="#5470c6" stroke-width="0" stroke-opacity="0.1" class="zr0-cls-0"></polygon>
<g clip-path="url(#zr0-c0)">
<path d="M817.2 961.8L817.2 819.4L817.2 676.9L817.2 534.5L817.2 392.1L817.2 249.6L817.2 107.2" fill="transparent" stroke="#D55E00" stroke-width="1.4" stroke-dasharray="5.6,2.8" stroke-linejoin="bevel" class="zr0-cls-2"></path>
</g>
<path d="M-230.4 -5l460.9 0l0 23l-460.9 0Z" transform="translate(945 13)" fill="rgb(0,0,0)" fill-opacity="0" stroke="#ccc" stroke-width="0" class="zr0-cls-0"></path>
<text dominant-baseline="central" text-anchor="middle" style="font-size:13px;font-family:Arial, Helvetica, 'Liberation Sans', sans-serif;" xml:space="preserve" y="6.5" transform="translate(945 13)" fill="#464646">Per-exposure clinical barotrauma incidence — international cohort comparison</text>
<path d="M932 961.8L1259.1 961.8" fill="#000" stroke="#000" class="zr0-cls-1"></path>
<path d="M932 955.8L932 967.8" fill="#000" stroke="#000" class="zr0-cls-1"></path>
<path d="M1259.1 955.8L1259.1 967.8" fill="#000" stroke="#000" class="zr0-cls-1"></path>
<path d="M613.6 819.4L1210.4 819.4" fill="#000" stroke="#000" class="zr0-cls-1"></path>
<path d="M613.6 813.4L613.6 825.4" fill="#000" stroke="#000" class="zr0-cls-1"></path>
<path d="M1210.4 813.4L1210.4 825.4" fill="#000" stroke="#000" class="zr0-cls-1"></path>
<path d="M591 676.9L1191.2 676.9" fill="#000" stroke="#000" class="zr0-cls-1"></path>
<path d="M591 670.9L591 682.9" fill="#000" stroke="#000" class="zr0-cls-1"></path>
<path d="M1191.2 670.9L1191.2 682.9" fill="#000" stroke="#000" class="zr0-cls-1"></path>
<path d="M655.3 534.5L1299.1 534.5" fill="#000" stroke="#000" class="zr0-cls-1"></path>
<path d="M655.3 528.5L655.3 540.5" fill="#000" stroke="#000" class="zr0-cls-1"></path>
<path d="M1299.1 528.5L1299.1 540.5" fill="#000" stroke="#000" class="zr0-cls-1"></path>
<path d="M505.7 392.1L745.8 392.1" fill="#000" stroke="#000" class="zr0-cls-1"></path>
<path d="M505.7 386.1L505.7 398.1" fill="#000" stroke="#000" class="zr0-cls-1"></path>
<path d="M745.8 386.1L745.8 398.1" fill="#000" stroke="#000" class="zr0-cls-1"></path>
<path d="M571.8 249.6L811.9 249.6" fill="#000" stroke="#000" class="zr0-cls-1"></path>
<path d="M571.8 243.6L571.8 255.6" fill="#000" stroke="#000" class="zr0-cls-1"></path>
<path d="M811.9 243.6L811.9 255.6" fill="#000" stroke="#000" class="zr0-cls-1"></path>
<path d="M759.7 107.2L883.3 107.2" fill="#000" stroke="#000" class="zr0-cls-1"></path>
<path d="M759.7 101.2L759.7 113.2" fill="#000" stroke="#000" class="zr0-cls-1"></path>
<path d="M883.3 101.2L883.3 113.2" fill="#000" stroke="#000" class="zr0-cls-1"></path>
<path d="M1 0A1 1 0 1 1 1 -0.1A1 1 0 0 1 1 0" transform="matrix(5.5,0,0,5.5,1076.4065,961.7857)" fill="#009E73" fill-opacity="0.8" stroke="#000" stroke-width="0.12727272727272726" stroke-opacity="0.8" class="zr0-cls-3"></path>
<path d="M1 0A1 1 0 1 1 1 -0.1A1 1 0 0 1 1 0" transform="matrix(5.5,0,0,5.5,818.896,819.3571)" fill="#0072B2" fill-opacity="0.8" stroke="#000" stroke-width="0.12727272727272726" stroke-opacity="0.8" class="zr0-cls-4"></path>
<path d="M1 0A1 1 0 1 1 1 -0.1A1 1 0 0 1 1 0" transform="matrix(5.5,0,0,5.5,791.057,676.9286)" fill="#0072B2" fill-opacity="0.8" stroke="#000" stroke-width="0.12727272727272726" stroke-opacity="0.8" class="zr0-cls-4"></path>
<path d="M1 0A1 1 0 1 1 1 -0.1A1 1 0 0 1 1 0" transform="matrix(5.5,0,0,5.5,881.5336,534.5)" fill="#56B4E9" fill-opacity="0.8" stroke="#000" stroke-width="0.12727272727272726" stroke-opacity="0.8" class="zr0-cls-5"></path>
<path d="M1 0A1 1 0 1 1 1 -0.1A1 1 0 0 1 1 0" transform="matrix(5.5,0,0,5.5,590.9643,392.0714)" fill="#56B4E9" fill-opacity="0.8" stroke="#000" stroke-width="0.12727272727272726" stroke-opacity="0.8" class="zr0-cls-5"></path>
<path d="M1 0A1 1 0 1 1 1 -0.1A1 1 0 0 1 1 0" transform="matrix(5.5,0,0,5.5,667.5215,249.6429)" fill="#0072B2" fill-opacity="0.8" stroke="#000" stroke-width="0.12727272727272726" stroke-opacity="0.8" class="zr0-cls-4"></path>
<path d="M1 0A1 1 0 1 1 1 -0.1A1 1 0 0 1 1 0" transform="matrix(7,0,0,7,817.156,107.2143)" fill="#D55E00" fill-opacity="0.8" stroke="#000" stroke-width="0.09999999999999999" stroke-opacity="0.8" class="zr0-cls-6"></path>
<text dominant-baseline="central" text-anchor="start" style="font-size:10px;font-family:Arial,sans-serif;" x="1805" y="961.7857142857143" fill="#000">63/1,627</text>
<text dominant-baseline="central" text-anchor="start" style="font-size:10px;font-family:Arial,sans-serif;" x="1805" y="819.3571428571429" fill="#000">8/335</text>
<text dominant-baseline="central" text-anchor="start" style="font-size:10px;font-family:Arial,sans-serif;" x="1805" y="676.9285714285713" fill="#000">7/314</text>
<text dominant-baseline="central" text-anchor="start" style="font-size:10px;font-family:Arial,sans-serif;" x="1805" y="534.5" fill="#000">9/327</text>
<text dominant-baseline="central" text-anchor="start" style="font-size:10px;font-family:Arial,sans-serif;" x="1805" y="392.07142857142856" fill="#000">10/927</text>
<text dominant-baseline="central" text-anchor="start" style="font-size:10px;font-family:Arial,sans-serif;" x="1805" y="249.6428571428571" fill="#000">19/1,254</text>
<text dominant-baseline="central" text-anchor="start" style="font-size:10px;font-family:Arial,sans-serif;" x="1805" y="107.21428571428567" fill="#000">173/7,271</text>
<text dominant-baseline="central" text-anchor="middle" style="font: 12px Arial,sans-serif" xml:space="preserve" y="6" transform="translate(945 1094)" fill="#000">Per-exposure incidence (%) with Wilson 95% CI · n_events / N_exposures shown right</text>
<defs >
<clipPath id="zr0-c0">
<path d="M402 35.3l1395 0l0 998.4l-1395 0Z" fill="#000" class="zr0-cls-1"></path>
</clipPath>
</defs>
<style ><![CDATA[
.zr0-cls-0:hover {
pointer-events:none;
}
.zr0-cls-1:hover {
cursor:pointer;
fill:rgba(0,0,0,1);
}
.zr0-cls-2:hover {
cursor:pointer;
}
.zr0-cls-3:hover {
cursor:pointer;
fill:rgba(0,173,126,1);
}
.zr0-cls-4:hover {
cursor:pointer;
fill:rgba(0,125,195,1);
}
.zr0-cls-5:hover {
cursor:pointer;
fill:rgba(94,198,255,1);
}
.zr0-cls-6:hover {
cursor:pointer;
fill:rgba(234,103,0,1);
}

]]>

</style>
</svg>